<mxfile host="app.diagrams.net" agent="Mozilla/5.0 (X11; Ubuntu; Linux x86_64; rv:137.0) Gecko/20100101 Firefox/137.0" version="26.2.13">
  <diagram name="Page-1" id="zbrnPMlyNwRr3SlvqQIs">
    <mxGraphModel dx="4556" dy="1590" grid="1" gridSize="10" guides="1" tooltips="1" connect="1" arrows="1" fold="1" page="1" pageScale="1" pageWidth="850" pageHeight="1100" math="0" shadow="0">
      <root>
        <mxCell id="0" />
        <mxCell id="1" parent="0" />
        <mxCell id="iH6gDpU6CvyVbPrYl2I8-55" style="edgeStyle=orthogonalEdgeStyle;rounded=0;orthogonalLoop=1;jettySize=auto;html=1;exitX=0.5;exitY=1;exitDx=0;exitDy=0;entryX=0.5;entryY=0;entryDx=0;entryDy=0;endArrow=none;startFill=0;" parent="1" source="iH6gDpU6CvyVbPrYl2I8-1" target="iH6gDpU6CvyVbPrYl2I8-54" edge="1">
          <mxGeometry relative="1" as="geometry" />
        </mxCell>
        <mxCell id="iH6gDpU6CvyVbPrYl2I8-60" style="edgeStyle=orthogonalEdgeStyle;rounded=0;orthogonalLoop=1;jettySize=auto;html=1;exitX=0;exitY=0.5;exitDx=0;exitDy=0;entryX=1;entryY=0.5;entryDx=0;entryDy=0;" parent="1" source="iH6gDpU6CvyVbPrYl2I8-1" target="iH6gDpU6CvyVbPrYl2I8-59" edge="1">
          <mxGeometry relative="1" as="geometry" />
        </mxCell>
        <mxCell id="iH6gDpU6CvyVbPrYl2I8-72" style="edgeStyle=orthogonalEdgeStyle;rounded=0;orthogonalLoop=1;jettySize=auto;html=1;exitX=1;exitY=0.5;exitDx=0;exitDy=0;entryX=0;entryY=0.5;entryDx=0;entryDy=0;" parent="1" source="iH6gDpU6CvyVbPrYl2I8-1" target="iH6gDpU6CvyVbPrYl2I8-70" edge="1">
          <mxGeometry relative="1" as="geometry" />
        </mxCell>
        <mxCell id="iH6gDpU6CvyVbPrYl2I8-1" value="&lt;font style=&quot;font-size: 21px;&quot;&gt;&lt;b&gt;Cliente&lt;/b&gt;&lt;/font&gt;" style="rounded=0;whiteSpace=wrap;html=1;" parent="1" vertex="1">
          <mxGeometry x="1095" y="390" width="120" height="60" as="geometry" />
        </mxCell>
        <mxCell id="iH6gDpU6CvyVbPrYl2I8-2" value="&lt;font style=&quot;font-size: 21px;&quot;&gt;&lt;b&gt;&lt;font&gt;Dirección&lt;/font&gt;&lt;/b&gt;&lt;/font&gt;" style="rounded=0;whiteSpace=wrap;html=1;" parent="1" vertex="1">
          <mxGeometry x="611.25" y="480" width="120" height="60" as="geometry" />
        </mxCell>
        <mxCell id="iH6gDpU6CvyVbPrYl2I8-66" style="edgeStyle=orthogonalEdgeStyle;rounded=0;orthogonalLoop=1;jettySize=auto;html=1;exitX=0.5;exitY=1;exitDx=0;exitDy=0;entryX=0.5;entryY=0;entryDx=0;entryDy=0;" parent="1" source="iH6gDpU6CvyVbPrYl2I8-3" target="iH6gDpU6CvyVbPrYl2I8-64" edge="1">
          <mxGeometry relative="1" as="geometry" />
        </mxCell>
        <mxCell id="iH6gDpU6CvyVbPrYl2I8-3" value="&lt;b&gt;&lt;font style=&quot;font-size: 21px;&quot;&gt;Estado de la República Mexicana&lt;/font&gt;&lt;/b&gt;" style="rounded=0;whiteSpace=wrap;html=1;" parent="1" vertex="1">
          <mxGeometry x="1410" y="362.5" width="220" height="60" as="geometry" />
        </mxCell>
        <mxCell id="iH6gDpU6CvyVbPrYl2I8-5" value="&lt;b&gt;&lt;font style=&quot;font-size: 21px;&quot;&gt;Municipio de México&lt;/font&gt;&lt;/b&gt;" style="rounded=0;whiteSpace=wrap;html=1;" parent="1" vertex="1">
          <mxGeometry x="1460" y="507.5" width="120" height="60" as="geometry" />
        </mxCell>
        <mxCell id="iH6gDpU6CvyVbPrYl2I8-6" value="&lt;b&gt;&lt;font style=&quot;font-size: 22px;&quot;&gt;Servicio&lt;/font&gt;&lt;/b&gt;" style="rounded=0;whiteSpace=wrap;html=1;" parent="1" vertex="1">
          <mxGeometry x="1095" y="545" width="120" height="60" as="geometry" />
        </mxCell>
        <mxCell id="iH6gDpU6CvyVbPrYl2I8-78" style="edgeStyle=orthogonalEdgeStyle;rounded=0;orthogonalLoop=1;jettySize=auto;html=1;exitX=0.5;exitY=1;exitDx=0;exitDy=0;entryX=0.5;entryY=0;entryDx=0;entryDy=0;" parent="1" source="iH6gDpU6CvyVbPrYl2I8-7" target="iH6gDpU6CvyVbPrYl2I8-76" edge="1">
          <mxGeometry relative="1" as="geometry" />
        </mxCell>
        <mxCell id="iH6gDpU6CvyVbPrYl2I8-7" value="&lt;b&gt;&lt;font style=&quot;font-size: 22px;&quot;&gt;TV&lt;/font&gt;&lt;/b&gt;" style="rounded=0;whiteSpace=wrap;html=1;" parent="1" vertex="1">
          <mxGeometry x="1003.75" y="690" width="120" height="60" as="geometry" />
        </mxCell>
        <mxCell id="iH6gDpU6CvyVbPrYl2I8-8" value="&lt;b&gt;&lt;font style=&quot;font-size: 22px;&quot;&gt;Telefonía&lt;/font&gt;&lt;/b&gt;" style="rounded=0;whiteSpace=wrap;html=1;" parent="1" vertex="1">
          <mxGeometry x="1095" y="765" width="120" height="60" as="geometry" />
        </mxCell>
        <mxCell id="iH6gDpU6CvyVbPrYl2I8-9" value="&lt;b&gt;&lt;font style=&quot;font-size: 22px;&quot;&gt;Internet&lt;/font&gt;&lt;/b&gt;" style="rounded=0;whiteSpace=wrap;html=1;" parent="1" vertex="1">
          <mxGeometry x="1190" y="690" width="120" height="60" as="geometry" />
        </mxCell>
        <mxCell id="iH6gDpU6CvyVbPrYl2I8-10" value="" style="triangle;whiteSpace=wrap;html=1;rotation=90;" parent="1" vertex="1">
          <mxGeometry x="1126.25" y="625" width="60" height="80" as="geometry" />
        </mxCell>
        <mxCell id="iH6gDpU6CvyVbPrYl2I8-11" value="" style="endArrow=none;html=1;rounded=0;entryX=0.5;entryY=1;entryDx=0;entryDy=0;exitX=0;exitY=0.5;exitDx=0;exitDy=0;" parent="1" source="iH6gDpU6CvyVbPrYl2I8-10" target="iH6gDpU6CvyVbPrYl2I8-6" edge="1">
          <mxGeometry width="50" height="50" relative="1" as="geometry">
            <mxPoint x="1297.5" y="695" as="sourcePoint" />
            <mxPoint x="1347.5" y="645" as="targetPoint" />
          </mxGeometry>
        </mxCell>
        <mxCell id="iH6gDpU6CvyVbPrYl2I8-12" value="" style="endArrow=none;html=1;rounded=0;exitX=0.5;exitY=0;exitDx=0;exitDy=0;entryX=0.5;entryY=1;entryDx=0;entryDy=0;" parent="1" source="iH6gDpU6CvyVbPrYl2I8-7" target="iH6gDpU6CvyVbPrYl2I8-10" edge="1">
          <mxGeometry width="50" height="50" relative="1" as="geometry">
            <mxPoint x="1297.5" y="695" as="sourcePoint" />
            <mxPoint x="1347.5" y="645" as="targetPoint" />
          </mxGeometry>
        </mxCell>
        <mxCell id="iH6gDpU6CvyVbPrYl2I8-13" value="" style="endArrow=none;html=1;rounded=0;exitX=0.5;exitY=0;exitDx=0;exitDy=0;entryX=1;entryY=0.5;entryDx=0;entryDy=0;" parent="1" source="iH6gDpU6CvyVbPrYl2I8-8" target="iH6gDpU6CvyVbPrYl2I8-10" edge="1">
          <mxGeometry width="50" height="50" relative="1" as="geometry">
            <mxPoint x="1047.5" y="765" as="sourcePoint" />
            <mxPoint x="1147.5" y="695" as="targetPoint" />
          </mxGeometry>
        </mxCell>
        <mxCell id="iH6gDpU6CvyVbPrYl2I8-14" value="" style="endArrow=none;html=1;rounded=0;exitX=0.5;exitY=0;exitDx=0;exitDy=0;entryX=0.5;entryY=0;entryDx=0;entryDy=0;" parent="1" source="iH6gDpU6CvyVbPrYl2I8-9" target="iH6gDpU6CvyVbPrYl2I8-10" edge="1">
          <mxGeometry width="50" height="50" relative="1" as="geometry">
            <mxPoint x="1067.5" y="725" as="sourcePoint" />
            <mxPoint x="1147.5" y="695" as="targetPoint" />
          </mxGeometry>
        </mxCell>
        <mxCell id="iH6gDpU6CvyVbPrYl2I8-15" value="&lt;b&gt;&lt;font style=&quot;font-size: 21px;&quot;&gt;Pago&lt;/font&gt;&lt;/b&gt;" style="rounded=0;whiteSpace=wrap;html=1;" parent="1" vertex="1">
          <mxGeometry x="1257.5" y="472.5" width="120" height="60" as="geometry" />
        </mxCell>
        <mxCell id="iH6gDpU6CvyVbPrYl2I8-16" value="&lt;b&gt;&lt;font style=&quot;font-size: 19px;&quot;&gt;Tarjeta de Crédito&lt;/font&gt;&lt;/b&gt;" style="rounded=0;whiteSpace=wrap;html=1;" parent="1" vertex="1">
          <mxGeometry x="620" y="785" width="120" height="60" as="geometry" />
        </mxCell>
        <mxCell id="iH6gDpU6CvyVbPrYl2I8-18" value="&lt;font style=&quot;font-size: 18px;&quot;&gt;&lt;b&gt;Historial de Estados del Servicio&lt;font&gt;s&lt;/font&gt;&lt;/b&gt;&lt;/font&gt;" style="rounded=0;whiteSpace=wrap;html=1;" parent="1" vertex="1">
          <mxGeometry x="847.5" y="690" width="120" height="60" as="geometry" />
        </mxCell>
        <mxCell id="iH6gDpU6CvyVbPrYl2I8-20" style="edgeStyle=orthogonalEdgeStyle;rounded=0;orthogonalLoop=1;jettySize=auto;html=1;exitX=0.5;exitY=1;exitDx=0;exitDy=0;entryX=0.5;entryY=0;entryDx=0;entryDy=0;endArrow=none;startFill=0;" parent="1" source="iH6gDpU6CvyVbPrYl2I8-19" target="iH6gDpU6CvyVbPrYl2I8-18" edge="1">
          <mxGeometry relative="1" as="geometry" />
        </mxCell>
        <mxCell id="iH6gDpU6CvyVbPrYl2I8-21" style="edgeStyle=orthogonalEdgeStyle;rounded=0;orthogonalLoop=1;jettySize=auto;html=1;exitX=0.5;exitY=0;exitDx=0;exitDy=0;entryX=0;entryY=0.5;entryDx=0;entryDy=0;endArrow=none;startFill=0;" parent="1" source="iH6gDpU6CvyVbPrYl2I8-19" target="iH6gDpU6CvyVbPrYl2I8-6" edge="1">
          <mxGeometry relative="1" as="geometry">
            <Array as="points">
              <mxPoint x="907.5" y="575" />
              <mxPoint x="1097.5" y="575" />
            </Array>
          </mxGeometry>
        </mxCell>
        <mxCell id="iH6gDpU6CvyVbPrYl2I8-19" value="" style="rhombus;whiteSpace=wrap;html=1;" parent="1" vertex="1">
          <mxGeometry x="837.5" y="600" width="140" height="60" as="geometry" />
        </mxCell>
        <mxCell id="iH6gDpU6CvyVbPrYl2I8-22" value="&lt;font style=&quot;font-size: 13px;&quot;&gt;&lt;u&gt;RFC&lt;/u&gt;&lt;/font&gt;" style="ellipse;whiteSpace=wrap;html=1;" parent="1" vertex="1">
          <mxGeometry x="1055" y="330" width="50" height="30" as="geometry" />
        </mxCell>
        <mxCell id="iH6gDpU6CvyVbPrYl2I8-23" value="Nombre" style="ellipse;whiteSpace=wrap;html=1;" parent="1" vertex="1">
          <mxGeometry x="1126.25" y="340" width="57.5" height="30" as="geometry" />
        </mxCell>
        <mxCell id="iH6gDpU6CvyVbPrYl2I8-25" value="" style="endArrow=none;html=1;rounded=0;exitX=0.25;exitY=0;exitDx=0;exitDy=0;entryX=1;entryY=1;entryDx=0;entryDy=0;" parent="1" source="iH6gDpU6CvyVbPrYl2I8-1" target="iH6gDpU6CvyVbPrYl2I8-22" edge="1">
          <mxGeometry width="50" height="50" relative="1" as="geometry">
            <mxPoint x="1095" y="360" as="sourcePoint" />
            <mxPoint x="1145" y="310" as="targetPoint" />
          </mxGeometry>
        </mxCell>
        <mxCell id="iH6gDpU6CvyVbPrYl2I8-26" value="" style="endArrow=none;html=1;rounded=0;exitX=0.5;exitY=0;exitDx=0;exitDy=0;entryX=0.5;entryY=1;entryDx=0;entryDy=0;" parent="1" source="iH6gDpU6CvyVbPrYl2I8-1" target="iH6gDpU6CvyVbPrYl2I8-23" edge="1">
          <mxGeometry width="50" height="50" relative="1" as="geometry">
            <mxPoint x="1135" y="400" as="sourcePoint" />
            <mxPoint x="1098" y="346" as="targetPoint" />
          </mxGeometry>
        </mxCell>
        <mxCell id="iH6gDpU6CvyVbPrYl2I8-28" value="Apellido Paterno" style="ellipse;whiteSpace=wrap;html=1;" parent="1" vertex="1">
          <mxGeometry x="1020" y="290" width="120" height="20" as="geometry" />
        </mxCell>
        <mxCell id="iH6gDpU6CvyVbPrYl2I8-29" value="Apellido Materno" style="ellipse;whiteSpace=wrap;html=1;" parent="1" vertex="1">
          <mxGeometry x="1165" y="290" width="120" height="20" as="geometry" />
        </mxCell>
        <mxCell id="iH6gDpU6CvyVbPrYl2I8-31" value="" style="endArrow=none;html=1;rounded=0;exitX=0.5;exitY=1;exitDx=0;exitDy=0;entryX=0.5;entryY=0;entryDx=0;entryDy=0;" parent="1" source="iH6gDpU6CvyVbPrYl2I8-28" target="iH6gDpU6CvyVbPrYl2I8-23" edge="1">
          <mxGeometry width="50" height="50" relative="1" as="geometry">
            <mxPoint x="1395" y="430" as="sourcePoint" />
            <mxPoint x="1445" y="380" as="targetPoint" />
          </mxGeometry>
        </mxCell>
        <mxCell id="iH6gDpU6CvyVbPrYl2I8-32" value="" style="endArrow=none;html=1;rounded=0;exitX=0.5;exitY=1;exitDx=0;exitDy=0;entryX=0.5;entryY=0;entryDx=0;entryDy=0;dashed=1;" parent="1" source="iH6gDpU6CvyVbPrYl2I8-29" target="iH6gDpU6CvyVbPrYl2I8-23" edge="1">
          <mxGeometry width="50" height="50" relative="1" as="geometry">
            <mxPoint x="1090" y="310" as="sourcePoint" />
            <mxPoint x="1165" y="350" as="targetPoint" />
          </mxGeometry>
        </mxCell>
        <mxCell id="iH6gDpU6CvyVbPrYl2I8-33" value="CURP" style="ellipse;whiteSpace=wrap;html=1;dashed=1;dashPattern=8 8;" parent="1" vertex="1">
          <mxGeometry x="1210" y="330" width="50" height="30" as="geometry" />
        </mxCell>
        <mxCell id="iH6gDpU6CvyVbPrYl2I8-34" value="" style="endArrow=none;html=1;rounded=0;exitX=0.75;exitY=0;exitDx=0;exitDy=0;entryX=0;entryY=1;entryDx=0;entryDy=0;dashed=1;" parent="1" source="iH6gDpU6CvyVbPrYl2I8-1" target="iH6gDpU6CvyVbPrYl2I8-33" edge="1">
          <mxGeometry width="50" height="50" relative="1" as="geometry">
            <mxPoint x="1395" y="430" as="sourcePoint" />
            <mxPoint x="1445" y="380" as="targetPoint" />
          </mxGeometry>
        </mxCell>
        <mxCell id="iH6gDpU6CvyVbPrYl2I8-35" value="ID Cliente" style="ellipse;whiteSpace=wrap;html=1;" parent="1" vertex="1">
          <mxGeometry x="960" y="340" width="80" height="30" as="geometry" />
        </mxCell>
        <mxCell id="iH6gDpU6CvyVbPrYl2I8-36" value="" style="endArrow=none;html=1;rounded=0;exitX=0.25;exitY=0;exitDx=0;exitDy=0;entryX=1;entryY=1;entryDx=0;entryDy=0;" parent="1" source="iH6gDpU6CvyVbPrYl2I8-1" target="iH6gDpU6CvyVbPrYl2I8-35" edge="1">
          <mxGeometry width="50" height="50" relative="1" as="geometry">
            <mxPoint x="1135" y="400" as="sourcePoint" />
            <mxPoint x="1108" y="366" as="targetPoint" />
          </mxGeometry>
        </mxCell>
        <mxCell id="iH6gDpU6CvyVbPrYl2I8-37" value="&lt;u&gt;ID Dirección&lt;/u&gt;" style="ellipse;whiteSpace=wrap;html=1;" parent="1" vertex="1">
          <mxGeometry x="730" y="440" width="80" height="30" as="geometry" />
        </mxCell>
        <mxCell id="iH6gDpU6CvyVbPrYl2I8-40" value="" style="endArrow=none;html=1;rounded=0;exitX=0.5;exitY=1;exitDx=0;exitDy=0;entryX=0.5;entryY=0;entryDx=0;entryDy=0;" parent="1" source="iH6gDpU6CvyVbPrYl2I8-37" target="iH6gDpU6CvyVbPrYl2I8-2" edge="1">
          <mxGeometry width="50" height="50" relative="1" as="geometry">
            <mxPoint x="866.25" y="380" as="sourcePoint" />
            <mxPoint x="916.25" y="330" as="targetPoint" />
          </mxGeometry>
        </mxCell>
        <mxCell id="iH6gDpU6CvyVbPrYl2I8-42" value="" style="triangle;whiteSpace=wrap;html=1;rotation=90;" parent="1" vertex="1">
          <mxGeometry x="641.25" y="590" width="60" height="80" as="geometry" />
        </mxCell>
        <mxCell id="iH6gDpU6CvyVbPrYl2I8-43" value="&lt;b&gt;&lt;font style=&quot;font-size: 22px;&quot;&gt;Domicilio&lt;/font&gt;&lt;/b&gt;" style="rounded=0;whiteSpace=wrap;html=1;" parent="1" vertex="1">
          <mxGeometry x="521.25" y="690" width="120" height="60" as="geometry" />
        </mxCell>
        <mxCell id="iH6gDpU6CvyVbPrYl2I8-44" value="&lt;b&gt;&lt;font style=&quot;font-size: 22px;&quot;&gt;Fiscal&lt;/font&gt;&lt;/b&gt;" style="rounded=0;whiteSpace=wrap;html=1;" parent="1" vertex="1">
          <mxGeometry x="690" y="690" width="120" height="60" as="geometry" />
        </mxCell>
        <mxCell id="iH6gDpU6CvyVbPrYl2I8-46" value="" style="endArrow=none;html=1;rounded=0;exitX=0.5;exitY=0;exitDx=0;exitDy=0;entryX=0.5;entryY=1;entryDx=0;entryDy=0;" parent="1" source="iH6gDpU6CvyVbPrYl2I8-43" target="iH6gDpU6CvyVbPrYl2I8-42" edge="1">
          <mxGeometry width="50" height="50" relative="1" as="geometry">
            <mxPoint x="865" y="680" as="sourcePoint" />
            <mxPoint x="915" y="630" as="targetPoint" />
          </mxGeometry>
        </mxCell>
        <mxCell id="iH6gDpU6CvyVbPrYl2I8-47" value="" style="endArrow=none;html=1;rounded=0;exitX=0.5;exitY=0;exitDx=0;exitDy=0;entryX=0.5;entryY=0;entryDx=0;entryDy=0;" parent="1" source="iH6gDpU6CvyVbPrYl2I8-44" target="iH6gDpU6CvyVbPrYl2I8-42" edge="1">
          <mxGeometry width="50" height="50" relative="1" as="geometry">
            <mxPoint x="591" y="690" as="sourcePoint" />
            <mxPoint x="660" y="640" as="targetPoint" />
          </mxGeometry>
        </mxCell>
        <mxCell id="iH6gDpU6CvyVbPrYl2I8-48" value="" style="curved=1;endArrow=none;html=1;rounded=0;startFill=0;" parent="1" edge="1">
          <mxGeometry width="50" height="50" relative="1" as="geometry">
            <mxPoint x="751.25" y="620" as="sourcePoint" />
            <mxPoint x="601.25" y="620" as="targetPoint" />
            <Array as="points">
              <mxPoint x="701.25" y="680" />
              <mxPoint x="651.25" y="680" />
              <mxPoint x="611.25" y="640" />
            </Array>
          </mxGeometry>
        </mxCell>
        <mxCell id="iH6gDpU6CvyVbPrYl2I8-49" value="&lt;font style=&quot;font-size: 14px;&quot;&gt;Tipo&lt;/font&gt;" style="ellipse;whiteSpace=wrap;html=1;aspect=fixed;" parent="1" vertex="1">
          <mxGeometry x="736.25" y="550" width="40" height="40" as="geometry" />
        </mxCell>
        <mxCell id="iH6gDpU6CvyVbPrYl2I8-50" value="" style="endArrow=none;html=1;rounded=0;exitX=0;exitY=0.5;exitDx=0;exitDy=0;" parent="1" source="iH6gDpU6CvyVbPrYl2I8-42" edge="1">
          <mxGeometry width="50" height="50" relative="1" as="geometry">
            <mxPoint x="921.25" y="660" as="sourcePoint" />
            <mxPoint x="671.25" y="570" as="targetPoint" />
          </mxGeometry>
        </mxCell>
        <mxCell id="iH6gDpU6CvyVbPrYl2I8-51" value="" style="endArrow=none;html=1;rounded=0;exitX=0;exitY=0.5;exitDx=0;exitDy=0;" parent="1" source="iH6gDpU6CvyVbPrYl2I8-49" edge="1">
          <mxGeometry width="50" height="50" relative="1" as="geometry">
            <mxPoint x="680.25" y="610" as="sourcePoint" />
            <mxPoint x="671.25" y="570" as="targetPoint" />
          </mxGeometry>
        </mxCell>
        <mxCell id="iH6gDpU6CvyVbPrYl2I8-52" value="" style="endArrow=none;html=1;rounded=0;entryX=0.5;entryY=1;entryDx=0;entryDy=0;" parent="1" target="iH6gDpU6CvyVbPrYl2I8-2" edge="1">
          <mxGeometry width="50" height="50" relative="1" as="geometry">
            <mxPoint x="671.25" y="580" as="sourcePoint" />
            <mxPoint x="691.25" y="590" as="targetPoint" />
          </mxGeometry>
        </mxCell>
        <mxCell id="iH6gDpU6CvyVbPrYl2I8-53" value="ID Cliente" style="ellipse;whiteSpace=wrap;html=1;" parent="1" vertex="1">
          <mxGeometry x="1371.25" y="780" width="80" height="30" as="geometry" />
        </mxCell>
        <mxCell id="iH6gDpU6CvyVbPrYl2I8-56" style="edgeStyle=orthogonalEdgeStyle;rounded=0;orthogonalLoop=1;jettySize=auto;html=1;exitX=0.5;exitY=1;exitDx=0;exitDy=0;entryX=0.5;entryY=0;entryDx=0;entryDy=0;" parent="1" source="iH6gDpU6CvyVbPrYl2I8-54" target="iH6gDpU6CvyVbPrYl2I8-6" edge="1">
          <mxGeometry relative="1" as="geometry" />
        </mxCell>
        <mxCell id="iH6gDpU6CvyVbPrYl2I8-54" value="puede tener" style="rhombus;whiteSpace=wrap;html=1;" parent="1" vertex="1">
          <mxGeometry x="1097.5" y="480" width="117.5" height="30" as="geometry" />
        </mxCell>
        <mxCell id="iH6gDpU6CvyVbPrYl2I8-57" value="(1, 1)" style="text;html=1;align=center;verticalAlign=middle;whiteSpace=wrap;rounded=0;" parent="1" vertex="1">
          <mxGeometry x="1155" y="450" width="60" height="30" as="geometry" />
        </mxCell>
        <mxCell id="iH6gDpU6CvyVbPrYl2I8-58" value="(1, *)" style="text;html=1;align=center;verticalAlign=middle;whiteSpace=wrap;rounded=0;" parent="1" vertex="1">
          <mxGeometry x="1157.5" y="515" width="60" height="30" as="geometry" />
        </mxCell>
        <mxCell id="iH6gDpU6CvyVbPrYl2I8-61" style="edgeStyle=orthogonalEdgeStyle;rounded=0;orthogonalLoop=1;jettySize=auto;html=1;exitX=0;exitY=0.5;exitDx=0;exitDy=0;entryX=0.5;entryY=0;entryDx=0;entryDy=0;" parent="1" source="iH6gDpU6CvyVbPrYl2I8-59" target="iH6gDpU6CvyVbPrYl2I8-2" edge="1">
          <mxGeometry relative="1" as="geometry" />
        </mxCell>
        <mxCell id="iH6gDpU6CvyVbPrYl2I8-59" value="puede tener" style="rhombus;whiteSpace=wrap;html=1;" parent="1" vertex="1">
          <mxGeometry x="810" y="405" width="117.5" height="30" as="geometry" />
        </mxCell>
        <mxCell id="iH6gDpU6CvyVbPrYl2I8-62" value="(1, 2)" style="text;html=1;align=center;verticalAlign=middle;whiteSpace=wrap;rounded=0;" parent="1" vertex="1">
          <mxGeometry x="671.25" y="420" width="60" height="30" as="geometry" />
        </mxCell>
        <mxCell id="iH6gDpU6CvyVbPrYl2I8-63" value="(1, 1)" style="text;html=1;align=center;verticalAlign=middle;whiteSpace=wrap;rounded=0;" parent="1" vertex="1">
          <mxGeometry x="1033.75" y="420" width="60" height="30" as="geometry" />
        </mxCell>
        <mxCell id="iH6gDpU6CvyVbPrYl2I8-65" style="edgeStyle=orthogonalEdgeStyle;rounded=0;orthogonalLoop=1;jettySize=auto;html=1;exitX=0.5;exitY=1;exitDx=0;exitDy=0;" parent="1" source="iH6gDpU6CvyVbPrYl2I8-64" target="iH6gDpU6CvyVbPrYl2I8-5" edge="1">
          <mxGeometry relative="1" as="geometry" />
        </mxCell>
        <mxCell id="iH6gDpU6CvyVbPrYl2I8-64" value="tiene" style="rhombus;whiteSpace=wrap;html=1;" parent="1" vertex="1">
          <mxGeometry x="1461.25" y="447.5" width="117.5" height="30" as="geometry" />
        </mxCell>
        <mxCell id="iH6gDpU6CvyVbPrYl2I8-67" value="(1, *)" style="text;html=1;align=center;verticalAlign=middle;whiteSpace=wrap;rounded=0;" parent="1" vertex="1">
          <mxGeometry x="1521.25" y="472.5" width="60" height="30" as="geometry" />
        </mxCell>
        <mxCell id="iH6gDpU6CvyVbPrYl2I8-68" value="(1, 1)" style="text;html=1;align=center;verticalAlign=middle;whiteSpace=wrap;rounded=0;" parent="1" vertex="1">
          <mxGeometry x="1521.25" y="422.5" width="60" height="30" as="geometry" />
        </mxCell>
        <mxCell id="iH6gDpU6CvyVbPrYl2I8-71" style="edgeStyle=orthogonalEdgeStyle;rounded=0;orthogonalLoop=1;jettySize=auto;html=1;exitX=0.5;exitY=1;exitDx=0;exitDy=0;entryX=0.5;entryY=0;entryDx=0;entryDy=0;" parent="1" source="iH6gDpU6CvyVbPrYl2I8-70" target="iH6gDpU6CvyVbPrYl2I8-15" edge="1">
          <mxGeometry relative="1" as="geometry" />
        </mxCell>
        <mxCell id="iH6gDpU6CvyVbPrYl2I8-70" value="pertenece a" style="rhombus;whiteSpace=wrap;html=1;" parent="1" vertex="1">
          <mxGeometry x="1260" y="405" width="117.5" height="30" as="geometry" />
        </mxCell>
        <mxCell id="iH6gDpU6CvyVbPrYl2I8-73" value="(1, 1)" style="text;html=1;align=center;verticalAlign=middle;whiteSpace=wrap;rounded=0;" parent="1" vertex="1">
          <mxGeometry x="1150" y="605" width="60" height="30" as="geometry" />
        </mxCell>
        <mxCell id="iH6gDpU6CvyVbPrYl2I8-75" value="&lt;b&gt;&lt;font style=&quot;font-size: 22px;&quot;&gt;Canal&lt;/font&gt;&lt;/b&gt;" style="rounded=0;whiteSpace=wrap;html=1;" parent="1" vertex="1">
          <mxGeometry x="938.75" y="870" width="120" height="60" as="geometry" />
        </mxCell>
        <mxCell id="iH6gDpU6CvyVbPrYl2I8-77" style="edgeStyle=orthogonalEdgeStyle;rounded=0;orthogonalLoop=1;jettySize=auto;html=1;exitX=0.5;exitY=1;exitDx=0;exitDy=0;" parent="1" source="iH6gDpU6CvyVbPrYl2I8-76" target="iH6gDpU6CvyVbPrYl2I8-75" edge="1">
          <mxGeometry relative="1" as="geometry" />
        </mxCell>
        <mxCell id="iH6gDpU6CvyVbPrYl2I8-76" value="se compone de" style="rhombus;whiteSpace=wrap;html=1;" parent="1" vertex="1">
          <mxGeometry x="940" y="795" width="117.5" height="45" as="geometry" />
        </mxCell>
        <mxCell id="emLbw0oFXSXxzqp0pOtp-1" style="edgeStyle=orthogonalEdgeStyle;rounded=0;orthogonalLoop=1;jettySize=auto;html=1;exitX=1;exitY=0.5;exitDx=0;exitDy=0;entryX=0;entryY=0.5;entryDx=0;entryDy=0;" edge="1" parent="1" source="emLbw0oFXSXxzqp0pOtp-4" target="emLbw0oFXSXxzqp0pOtp-40">
          <mxGeometry relative="1" as="geometry" />
        </mxCell>
        <mxCell id="emLbw0oFXSXxzqp0pOtp-2" style="edgeStyle=orthogonalEdgeStyle;rounded=0;orthogonalLoop=1;jettySize=auto;html=1;entryX=0.5;entryY=0;entryDx=0;entryDy=0;" edge="1" parent="1" source="emLbw0oFXSXxzqp0pOtp-4" target="emLbw0oFXSXxzqp0pOtp-233">
          <mxGeometry relative="1" as="geometry" />
        </mxCell>
        <mxCell id="emLbw0oFXSXxzqp0pOtp-3" style="edgeStyle=orthogonalEdgeStyle;rounded=0;orthogonalLoop=1;jettySize=auto;html=1;exitX=0.5;exitY=1;exitDx=0;exitDy=0;entryX=0;entryY=0.5;entryDx=0;entryDy=0;" edge="1" parent="1" source="emLbw0oFXSXxzqp0pOtp-4">
          <mxGeometry relative="1" as="geometry">
            <Array as="points">
              <mxPoint x="-1600" y="682" />
              <mxPoint x="-1600" y="1421" />
            </Array>
            <mxPoint x="-1165" y="1421" as="targetPoint" />
          </mxGeometry>
        </mxCell>
        <mxCell id="emLbw0oFXSXxzqp0pOtp-4" value="&lt;b&gt;&lt;font style=&quot;font-size: 20px;&quot;&gt;Cliente&lt;/font&gt;&lt;/b&gt;" style="rounded=0;whiteSpace=wrap;html=1;" vertex="1" parent="1">
          <mxGeometry x="-1370" y="622.25" width="120" height="60" as="geometry" />
        </mxCell>
        <mxCell id="emLbw0oFXSXxzqp0pOtp-5" value="&lt;div&gt;&lt;u&gt;ID Cliente&lt;/u&gt;&lt;/div&gt;" style="ellipse;whiteSpace=wrap;html=1;" vertex="1" parent="1">
          <mxGeometry x="-1450" y="552.25" width="80" height="30" as="geometry" />
        </mxCell>
        <mxCell id="emLbw0oFXSXxzqp0pOtp-6" value="Nombre Completo" style="ellipse;whiteSpace=wrap;html=1;" vertex="1" parent="1">
          <mxGeometry x="-1365" y="562.25" width="110" height="30" as="geometry" />
        </mxCell>
        <mxCell id="emLbw0oFXSXxzqp0pOtp-7" value="" style="endArrow=none;html=1;rounded=0;entryX=1;entryY=1;entryDx=0;entryDy=0;exitX=0.5;exitY=0;exitDx=0;exitDy=0;" edge="1" parent="1" source="emLbw0oFXSXxzqp0pOtp-4" target="emLbw0oFXSXxzqp0pOtp-5">
          <mxGeometry width="50" height="50" relative="1" as="geometry">
            <mxPoint x="-1515" y="692.25" as="sourcePoint" />
            <mxPoint x="-1465" y="642.25" as="targetPoint" />
          </mxGeometry>
        </mxCell>
        <mxCell id="emLbw0oFXSXxzqp0pOtp-8" value="" style="endArrow=none;html=1;rounded=0;entryX=0.5;entryY=1;entryDx=0;entryDy=0;exitX=0.5;exitY=0;exitDx=0;exitDy=0;" edge="1" parent="1" source="emLbw0oFXSXxzqp0pOtp-4" target="emLbw0oFXSXxzqp0pOtp-6">
          <mxGeometry width="50" height="50" relative="1" as="geometry">
            <mxPoint x="-1235" y="642.25" as="sourcePoint" />
            <mxPoint x="-1185" y="592.25" as="targetPoint" />
          </mxGeometry>
        </mxCell>
        <mxCell id="emLbw0oFXSXxzqp0pOtp-9" value="(1, *)" style="text;html=1;align=center;verticalAlign=middle;whiteSpace=wrap;rounded=0;" vertex="1" parent="1">
          <mxGeometry x="-1045" y="673.5" width="60" height="30" as="geometry" />
        </mxCell>
        <mxCell id="emLbw0oFXSXxzqp0pOtp-10" style="edgeStyle=orthogonalEdgeStyle;rounded=0;orthogonalLoop=1;jettySize=auto;html=1;exitX=0.5;exitY=1;exitDx=0;exitDy=0;endArrow=none;startFill=0;" edge="1" parent="1" source="emLbw0oFXSXxzqp0pOtp-11" target="emLbw0oFXSXxzqp0pOtp-57">
          <mxGeometry relative="1" as="geometry" />
        </mxCell>
        <mxCell id="emLbw0oFXSXxzqp0pOtp-11" value="&lt;b&gt;&lt;font style=&quot;font-size: 19px;&quot;&gt;Dirección&lt;/font&gt;&lt;/b&gt;" style="rounded=0;whiteSpace=wrap;html=1;" vertex="1" parent="1">
          <mxGeometry x="-977.5" y="641" width="120" height="60" as="geometry" />
        </mxCell>
        <mxCell id="emLbw0oFXSXxzqp0pOtp-12" value="&lt;div&gt;ID Dirección&lt;/div&gt;" style="ellipse;whiteSpace=wrap;html=1;" vertex="1" parent="1">
          <mxGeometry x="-1007.5" y="592.25" width="80" height="30" as="geometry" />
        </mxCell>
        <mxCell id="emLbw0oFXSXxzqp0pOtp-13" value="Dirección Completa" style="ellipse;whiteSpace=wrap;html=1;" vertex="1" parent="1">
          <mxGeometry x="-917.5" y="592.25" width="140" height="30" as="geometry" />
        </mxCell>
        <mxCell id="emLbw0oFXSXxzqp0pOtp-14" value="" style="endArrow=none;html=1;rounded=0;entryX=0.5;entryY=1;entryDx=0;entryDy=0;exitX=0.5;exitY=0;exitDx=0;exitDy=0;" edge="1" parent="1" source="emLbw0oFXSXxzqp0pOtp-11" target="emLbw0oFXSXxzqp0pOtp-12">
          <mxGeometry width="50" height="50" relative="1" as="geometry">
            <mxPoint x="-915" y="632.25" as="sourcePoint" />
            <mxPoint x="-1025" y="657.25" as="targetPoint" />
          </mxGeometry>
        </mxCell>
        <mxCell id="emLbw0oFXSXxzqp0pOtp-15" value="" style="endArrow=none;html=1;rounded=0;entryX=0.5;entryY=1;entryDx=0;entryDy=0;exitX=0.5;exitY=0;exitDx=0;exitDy=0;" edge="1" parent="1" source="emLbw0oFXSXxzqp0pOtp-11" target="emLbw0oFXSXxzqp0pOtp-13">
          <mxGeometry width="50" height="50" relative="1" as="geometry">
            <mxPoint x="-915" y="632.25" as="sourcePoint" />
            <mxPoint x="-745" y="607.25" as="targetPoint" />
          </mxGeometry>
        </mxCell>
        <mxCell id="emLbw0oFXSXxzqp0pOtp-16" value="Apellido Materno" style="ellipse;whiteSpace=wrap;html=1;" vertex="1" parent="1">
          <mxGeometry x="-1425" y="514.75" width="110" height="30" as="geometry" />
        </mxCell>
        <mxCell id="emLbw0oFXSXxzqp0pOtp-17" value="Apellido Paterno" style="ellipse;whiteSpace=wrap;html=1;" vertex="1" parent="1">
          <mxGeometry x="-1302.5" y="514.75" width="110" height="30" as="geometry" />
        </mxCell>
        <mxCell id="emLbw0oFXSXxzqp0pOtp-18" value="" style="endArrow=none;html=1;rounded=0;exitX=0.5;exitY=0;exitDx=0;exitDy=0;entryX=0.5;entryY=1;entryDx=0;entryDy=0;" edge="1" parent="1" source="emLbw0oFXSXxzqp0pOtp-6" target="emLbw0oFXSXxzqp0pOtp-16">
          <mxGeometry width="50" height="50" relative="1" as="geometry">
            <mxPoint x="-1105" y="472.25" as="sourcePoint" />
            <mxPoint x="-1055" y="422.25" as="targetPoint" />
          </mxGeometry>
        </mxCell>
        <mxCell id="emLbw0oFXSXxzqp0pOtp-19" value="" style="endArrow=none;html=1;rounded=0;exitX=0.5;exitY=0;exitDx=0;exitDy=0;entryX=0.5;entryY=1;entryDx=0;entryDy=0;" edge="1" parent="1" source="emLbw0oFXSXxzqp0pOtp-6" target="emLbw0oFXSXxzqp0pOtp-17">
          <mxGeometry width="50" height="50" relative="1" as="geometry">
            <mxPoint x="-1300" y="572.25" as="sourcePoint" />
            <mxPoint x="-1360" y="522.25" as="targetPoint" />
          </mxGeometry>
        </mxCell>
        <mxCell id="emLbw0oFXSXxzqp0pOtp-20" value="Nombre" style="ellipse;whiteSpace=wrap;html=1;" vertex="1" parent="1">
          <mxGeometry x="-1365" y="472.25" width="110" height="30" as="geometry" />
        </mxCell>
        <mxCell id="emLbw0oFXSXxzqp0pOtp-21" value="" style="endArrow=none;html=1;rounded=0;exitX=0.5;exitY=0;exitDx=0;exitDy=0;entryX=0.5;entryY=1;entryDx=0;entryDy=0;" edge="1" parent="1" source="emLbw0oFXSXxzqp0pOtp-6" target="emLbw0oFXSXxzqp0pOtp-20">
          <mxGeometry width="50" height="50" relative="1" as="geometry">
            <mxPoint x="-1300" y="572.25" as="sourcePoint" />
            <mxPoint x="-1237" y="542.25" as="targetPoint" />
          </mxGeometry>
        </mxCell>
        <mxCell id="emLbw0oFXSXxzqp0pOtp-22" style="edgeStyle=orthogonalEdgeStyle;rounded=0;orthogonalLoop=1;jettySize=auto;html=1;exitX=1;exitY=0.5;exitDx=0;exitDy=0;entryX=0;entryY=0.5;entryDx=0;entryDy=0;" edge="1" parent="1" source="emLbw0oFXSXxzqp0pOtp-23" target="emLbw0oFXSXxzqp0pOtp-278">
          <mxGeometry relative="1" as="geometry" />
        </mxCell>
        <mxCell id="emLbw0oFXSXxzqp0pOtp-23" value="&lt;b&gt;&lt;font style=&quot;font-size: 17px;&quot;&gt;REGISTRADA&lt;/font&gt;&lt;/b&gt;" style="rounded=0;whiteSpace=wrap;html=1;" vertex="1" parent="1">
          <mxGeometry x="-1265" y="2190" width="120" height="60" as="geometry" />
        </mxCell>
        <mxCell id="emLbw0oFXSXxzqp0pOtp-24" value="&lt;b&gt;&lt;font style=&quot;font-size: 25px;&quot;&gt;FIN&lt;/font&gt;&lt;/b&gt;" style="rounded=0;whiteSpace=wrap;html=1;" vertex="1" parent="1">
          <mxGeometry x="-215" y="2190.62" width="120" height="60" as="geometry" />
        </mxCell>
        <mxCell id="emLbw0oFXSXxzqp0pOtp-25" value="Usuario" style="ellipse;whiteSpace=wrap;html=1;" vertex="1" parent="1">
          <mxGeometry x="-1185" y="512.25" width="110" height="30" as="geometry" />
        </mxCell>
        <mxCell id="emLbw0oFXSXxzqp0pOtp-26" value="Password" style="ellipse;whiteSpace=wrap;html=1;" vertex="1" parent="1">
          <mxGeometry x="-1192.5" y="552.25" width="110" height="30" as="geometry" />
        </mxCell>
        <mxCell id="emLbw0oFXSXxzqp0pOtp-27" value="" style="endArrow=none;html=1;rounded=0;exitX=0.75;exitY=0;exitDx=0;exitDy=0;entryX=0;entryY=1;entryDx=0;entryDy=0;" edge="1" parent="1" source="emLbw0oFXSXxzqp0pOtp-4" target="emLbw0oFXSXxzqp0pOtp-25">
          <mxGeometry width="50" height="50" relative="1" as="geometry">
            <mxPoint x="-1300" y="572.25" as="sourcePoint" />
            <mxPoint x="-1237" y="555.25" as="targetPoint" />
          </mxGeometry>
        </mxCell>
        <mxCell id="emLbw0oFXSXxzqp0pOtp-28" value="" style="endArrow=none;html=1;rounded=0;exitX=0.75;exitY=0;exitDx=0;exitDy=0;entryX=0;entryY=1;entryDx=0;entryDy=0;" edge="1" parent="1" source="emLbw0oFXSXxzqp0pOtp-4" target="emLbw0oFXSXxzqp0pOtp-26">
          <mxGeometry width="50" height="50" relative="1" as="geometry">
            <mxPoint x="-1300" y="632.25" as="sourcePoint" />
            <mxPoint x="-1159" y="548.25" as="targetPoint" />
          </mxGeometry>
        </mxCell>
        <mxCell id="emLbw0oFXSXxzqp0pOtp-29" value="&lt;div&gt;RFC&lt;/div&gt;" style="ellipse;whiteSpace=wrap;html=1;" vertex="1" parent="1">
          <mxGeometry x="-1425" y="592.25" width="45" height="20" as="geometry" />
        </mxCell>
        <mxCell id="emLbw0oFXSXxzqp0pOtp-30" value="" style="endArrow=none;html=1;rounded=0;entryX=1;entryY=0.5;entryDx=0;entryDy=0;exitX=0.25;exitY=0;exitDx=0;exitDy=0;dashed=1;" edge="1" parent="1" source="emLbw0oFXSXxzqp0pOtp-4" target="emLbw0oFXSXxzqp0pOtp-29">
          <mxGeometry width="50" height="50" relative="1" as="geometry">
            <mxPoint x="-1300" y="632.25" as="sourcePoint" />
            <mxPoint x="-1372" y="588.25" as="targetPoint" />
          </mxGeometry>
        </mxCell>
        <mxCell id="emLbw0oFXSXxzqp0pOtp-31" value="" style="endArrow=none;html=1;rounded=0;exitX=0;exitY=0.5;exitDx=0;exitDy=0;entryX=1;entryY=0.5;entryDx=0;entryDy=0;" edge="1" parent="1" source="emLbw0oFXSXxzqp0pOtp-4" target="emLbw0oFXSXxzqp0pOtp-34">
          <mxGeometry width="50" height="50" relative="1" as="geometry">
            <mxPoint x="-1300" y="632.25" as="sourcePoint" />
            <mxPoint x="-1415" y="642.25" as="targetPoint" />
          </mxGeometry>
        </mxCell>
        <mxCell id="emLbw0oFXSXxzqp0pOtp-32" value="" style="group" vertex="1" connectable="0" parent="1">
          <mxGeometry x="-1535" y="622.25" width="130" height="40" as="geometry" />
        </mxCell>
        <mxCell id="emLbw0oFXSXxzqp0pOtp-33" value="" style="ellipse;whiteSpace=wrap;html=1;movable=0;resizable=0;rotatable=0;deletable=0;editable=0;locked=1;connectable=0;" vertex="1" parent="emLbw0oFXSXxzqp0pOtp-32">
          <mxGeometry width="130" height="40" as="geometry" />
        </mxCell>
        <mxCell id="emLbw0oFXSXxzqp0pOtp-34" value="Correo Electrónico" style="ellipse;whiteSpace=wrap;html=1;movable=1;resizable=1;rotatable=1;deletable=1;editable=1;locked=0;connectable=1;" vertex="1" parent="emLbw0oFXSXxzqp0pOtp-32">
          <mxGeometry x="10" y="5" width="110" height="30" as="geometry" />
        </mxCell>
        <mxCell id="emLbw0oFXSXxzqp0pOtp-35" value="" style="group" vertex="1" connectable="0" parent="1">
          <mxGeometry x="-1515" y="672.25" width="95" height="30" as="geometry" />
        </mxCell>
        <mxCell id="emLbw0oFXSXxzqp0pOtp-36" value="" style="ellipse;whiteSpace=wrap;html=1;" vertex="1" parent="emLbw0oFXSXxzqp0pOtp-35">
          <mxGeometry width="95" height="30" as="geometry" />
        </mxCell>
        <mxCell id="emLbw0oFXSXxzqp0pOtp-37" value="Teléfono" style="ellipse;whiteSpace=wrap;html=1;" vertex="1" parent="emLbw0oFXSXxzqp0pOtp-35">
          <mxGeometry x="10" y="5" width="75" height="20" as="geometry" />
        </mxCell>
        <mxCell id="emLbw0oFXSXxzqp0pOtp-38" value="" style="endArrow=none;html=1;rounded=0;exitX=0;exitY=0.5;exitDx=0;exitDy=0;entryX=1;entryY=0.5;entryDx=0;entryDy=0;" edge="1" parent="1" source="emLbw0oFXSXxzqp0pOtp-4" target="emLbw0oFXSXxzqp0pOtp-36">
          <mxGeometry width="50" height="50" relative="1" as="geometry">
            <mxPoint x="-1360" y="662.25" as="sourcePoint" />
            <mxPoint x="-1395" y="662.25" as="targetPoint" />
          </mxGeometry>
        </mxCell>
        <mxCell id="emLbw0oFXSXxzqp0pOtp-39" style="edgeStyle=orthogonalEdgeStyle;rounded=0;orthogonalLoop=1;jettySize=auto;html=1;exitX=1;exitY=0.5;exitDx=0;exitDy=0;entryX=0;entryY=0.5;entryDx=0;entryDy=0;" edge="1" parent="1" source="emLbw0oFXSXxzqp0pOtp-40" target="emLbw0oFXSXxzqp0pOtp-11">
          <mxGeometry relative="1" as="geometry" />
        </mxCell>
        <mxCell id="emLbw0oFXSXxzqp0pOtp-40" value="vive en" style="rhombus;whiteSpace=wrap;html=1;" vertex="1" parent="1">
          <mxGeometry x="-1175" y="631" width="110" height="42.5" as="geometry" />
        </mxCell>
        <mxCell id="emLbw0oFXSXxzqp0pOtp-41" value="Número" style="ellipse;whiteSpace=wrap;html=1;" vertex="1" parent="1">
          <mxGeometry x="-1150" y="912.25" width="70" height="30" as="geometry" />
        </mxCell>
        <mxCell id="emLbw0oFXSXxzqp0pOtp-42" value="Tipo de Examen" style="ellipse;whiteSpace=wrap;html=1;" vertex="1" parent="1">
          <mxGeometry x="-1165" y="832.25" width="102.5" height="30" as="geometry" />
        </mxCell>
        <mxCell id="emLbw0oFXSXxzqp0pOtp-43" value="Requiere Ayuno" style="ellipse;whiteSpace=wrap;html=1;" vertex="1" parent="1">
          <mxGeometry x="-1165" y="872.25" width="100" height="30" as="geometry" />
        </mxCell>
        <mxCell id="emLbw0oFXSXxzqp0pOtp-44" value="" style="endArrow=none;html=1;rounded=0;entryX=1;entryY=0.5;entryDx=0;entryDy=0;exitX=0.042;exitY=0.4;exitDx=0;exitDy=0;exitPerimeter=0;" edge="1" parent="1" source="emLbw0oFXSXxzqp0pOtp-48" target="emLbw0oFXSXxzqp0pOtp-42">
          <mxGeometry width="50" height="50" relative="1" as="geometry">
            <mxPoint x="-1037.5" y="867.25" as="sourcePoint" />
            <mxPoint x="-942.5" y="1002.25" as="targetPoint" />
          </mxGeometry>
        </mxCell>
        <mxCell id="emLbw0oFXSXxzqp0pOtp-45" value="" style="endArrow=none;html=1;rounded=0;entryX=1;entryY=0;entryDx=0;entryDy=0;exitX=0;exitY=1;exitDx=0;exitDy=0;" edge="1" parent="1" source="emLbw0oFXSXxzqp0pOtp-48" target="emLbw0oFXSXxzqp0pOtp-41">
          <mxGeometry width="50" height="50" relative="1" as="geometry">
            <mxPoint x="-942.5" y="1022.25" as="sourcePoint" />
            <mxPoint x="-932.5" y="982.25" as="targetPoint" />
          </mxGeometry>
        </mxCell>
        <mxCell id="emLbw0oFXSXxzqp0pOtp-46" value="" style="endArrow=none;html=1;rounded=0;entryX=1;entryY=0.5;entryDx=0;entryDy=0;exitX=0;exitY=0.75;exitDx=0;exitDy=0;" edge="1" parent="1" source="emLbw0oFXSXxzqp0pOtp-48" target="emLbw0oFXSXxzqp0pOtp-43">
          <mxGeometry width="50" height="50" relative="1" as="geometry">
            <mxPoint x="-1037.5" y="882.25" as="sourcePoint" />
            <mxPoint x="-922.5" y="1022.25" as="targetPoint" />
          </mxGeometry>
        </mxCell>
        <mxCell id="emLbw0oFXSXxzqp0pOtp-47" value="" style="endArrow=none;html=1;rounded=0;entryX=0.5;entryY=0;entryDx=0;entryDy=0;exitX=0.5;exitY=0;exitDx=0;exitDy=0;" edge="1" parent="1" source="emLbw0oFXSXxzqp0pOtp-49" target="emLbw0oFXSXxzqp0pOtp-55">
          <mxGeometry width="50" height="50" relative="1" as="geometry">
            <mxPoint x="-927.5" y="1107.25" as="sourcePoint" />
            <mxPoint x="-757.5" y="812.25" as="targetPoint" />
          </mxGeometry>
        </mxCell>
        <mxCell id="emLbw0oFXSXxzqp0pOtp-48" value="&lt;p class=&quot;&quot; data-end=&quot;275&quot; data-start=&quot;236&quot;&gt;&lt;font style=&quot;font-size: 20px;&quot;&gt;&lt;strong data-end=&quot;244&quot; data-start=&quot;236&quot;&gt;Dirección Fiscal&lt;/strong&gt;&lt;/font&gt;&lt;/p&gt;" style="rounded=0;whiteSpace=wrap;html=1;" vertex="1" parent="1">
          <mxGeometry x="-1037.5" y="822.25" width="120" height="60" as="geometry" />
        </mxCell>
        <mxCell id="emLbw0oFXSXxzqp0pOtp-49" value="&lt;font style=&quot;font-size: 20px;&quot;&gt;&lt;strong data-end=&quot;244&quot; data-start=&quot;236&quot;&gt;Dirección Envío&lt;/strong&gt;&lt;/font&gt;" style="rounded=0;whiteSpace=wrap;html=1;" vertex="1" parent="1">
          <mxGeometry x="-897.5" y="822.25" width="120" height="60" as="geometry" />
        </mxCell>
        <mxCell id="emLbw0oFXSXxzqp0pOtp-50" value="&lt;p class=&quot;&quot; data-end=&quot;384&quot; data-start=&quot;345&quot;&gt;&lt;font style=&quot;font-size: 11px;&quot;&gt;&lt;span data-end=&quot;360&quot; data-start=&quot;345&quot;&gt;Consultorio&lt;/span&gt;&lt;/font&gt;&lt;/p&gt;" style="ellipse;whiteSpace=wrap;html=1;" vertex="1" parent="1">
          <mxGeometry x="-925" y="902.25" width="90" height="30" as="geometry" />
        </mxCell>
        <mxCell id="emLbw0oFXSXxzqp0pOtp-51" value="" style="endArrow=none;html=1;rounded=0;entryX=0.5;entryY=1;entryDx=0;entryDy=0;exitX=0.5;exitY=0;exitDx=0;exitDy=0;" edge="1" parent="1" source="emLbw0oFXSXxzqp0pOtp-50" target="emLbw0oFXSXxzqp0pOtp-49">
          <mxGeometry width="50" height="50" relative="1" as="geometry">
            <mxPoint x="-817.5" y="832.25" as="sourcePoint" />
            <mxPoint x="-807.5" y="782.25" as="targetPoint" />
          </mxGeometry>
        </mxCell>
        <mxCell id="emLbw0oFXSXxzqp0pOtp-52" value="Médico" style="ellipse;whiteSpace=wrap;html=1;" vertex="1" parent="1">
          <mxGeometry x="-825" y="902.25" width="90" height="30" as="geometry" />
        </mxCell>
        <mxCell id="emLbw0oFXSXxzqp0pOtp-53" style="edgeStyle=orthogonalEdgeStyle;rounded=0;orthogonalLoop=1;jettySize=auto;html=1;exitX=0.5;exitY=1;exitDx=0;exitDy=0;" edge="1" parent="1" source="emLbw0oFXSXxzqp0pOtp-50" target="emLbw0oFXSXxzqp0pOtp-50">
          <mxGeometry relative="1" as="geometry" />
        </mxCell>
        <mxCell id="emLbw0oFXSXxzqp0pOtp-54" value="" style="endArrow=none;html=1;rounded=0;entryX=0.5;entryY=1;entryDx=0;entryDy=0;exitX=0.5;exitY=0;exitDx=0;exitDy=0;" edge="1" parent="1" source="emLbw0oFXSXxzqp0pOtp-52" target="emLbw0oFXSXxzqp0pOtp-49">
          <mxGeometry width="50" height="50" relative="1" as="geometry">
            <mxPoint x="-842.5" y="922.25" as="sourcePoint" />
            <mxPoint x="-817.5" y="892.25" as="targetPoint" />
          </mxGeometry>
        </mxCell>
        <mxCell id="emLbw0oFXSXxzqp0pOtp-55" value="" style="triangle;whiteSpace=wrap;html=1;rotation=90;" vertex="1" parent="1">
          <mxGeometry x="-947.5" y="732.25" width="60" height="80" as="geometry" />
        </mxCell>
        <mxCell id="emLbw0oFXSXxzqp0pOtp-56" style="edgeStyle=orthogonalEdgeStyle;rounded=0;orthogonalLoop=1;jettySize=auto;html=1;exitX=0.5;exitY=1;exitDx=0;exitDy=0;endArrow=none;startFill=0;" edge="1" parent="1" source="emLbw0oFXSXxzqp0pOtp-57" target="emLbw0oFXSXxzqp0pOtp-55">
          <mxGeometry relative="1" as="geometry" />
        </mxCell>
        <mxCell id="emLbw0oFXSXxzqp0pOtp-57" value="" style="ellipse;whiteSpace=wrap;html=1;aspect=fixed;" vertex="1" parent="1">
          <mxGeometry x="-927.5" y="702.25" width="20" height="20" as="geometry" />
        </mxCell>
        <mxCell id="emLbw0oFXSXxzqp0pOtp-58" value="" style="endArrow=none;html=1;rounded=0;entryX=0.5;entryY=1;entryDx=0;entryDy=0;exitX=0.5;exitY=0;exitDx=0;exitDy=0;" edge="1" parent="1" source="emLbw0oFXSXxzqp0pOtp-48" target="emLbw0oFXSXxzqp0pOtp-55">
          <mxGeometry width="50" height="50" relative="1" as="geometry">
            <mxPoint x="-1072.5" y="792.25" as="sourcePoint" />
            <mxPoint x="-1022.5" y="742.25" as="targetPoint" />
          </mxGeometry>
        </mxCell>
        <mxCell id="emLbw0oFXSXxzqp0pOtp-59" value="(1, 1)" style="text;html=1;align=center;verticalAlign=middle;whiteSpace=wrap;rounded=0;" vertex="1" parent="1">
          <mxGeometry x="-1245" y="656" width="60" height="30" as="geometry" />
        </mxCell>
        <mxCell id="emLbw0oFXSXxzqp0pOtp-60" style="edgeStyle=orthogonalEdgeStyle;rounded=0;orthogonalLoop=1;jettySize=auto;html=1;exitX=1;exitY=0.5;exitDx=0;exitDy=0;entryX=0;entryY=0.5;entryDx=0;entryDy=0;" edge="1" parent="1" source="emLbw0oFXSXxzqp0pOtp-61" target="emLbw0oFXSXxzqp0pOtp-167">
          <mxGeometry relative="1" as="geometry">
            <Array as="points">
              <mxPoint x="-590" y="1267.25" />
              <mxPoint x="-590" y="1317.25" />
            </Array>
          </mxGeometry>
        </mxCell>
        <mxCell id="emLbw0oFXSXxzqp0pOtp-61" value="&lt;b&gt;&lt;font style=&quot;font-size: 20px;&quot;&gt;Tarjeta de Crédito&lt;/font&gt;&lt;/b&gt;" style="rounded=0;whiteSpace=wrap;html=1;" vertex="1" parent="1">
          <mxGeometry x="-830" y="1237.25" width="120" height="60" as="geometry" />
        </mxCell>
        <mxCell id="emLbw0oFXSXxzqp0pOtp-62" value="&lt;div&gt;&lt;u&gt;RFC&lt;/u&gt;&lt;/div&gt;" style="ellipse;whiteSpace=wrap;html=1;" vertex="1" parent="1">
          <mxGeometry x="-925" y="1277.25" width="45" height="20" as="geometry" />
        </mxCell>
        <mxCell id="emLbw0oFXSXxzqp0pOtp-63" value="&lt;div&gt;ID Tarjeta&lt;/div&gt;" style="ellipse;whiteSpace=wrap;html=1;" vertex="1" parent="1">
          <mxGeometry x="-947.5" y="1231" width="80" height="30" as="geometry" />
        </mxCell>
        <mxCell id="emLbw0oFXSXxzqp0pOtp-64" value="&lt;div&gt;ID Cliente&lt;/div&gt;" style="ellipse;whiteSpace=wrap;html=1;" vertex="1" parent="1">
          <mxGeometry x="-930" y="1307.25" width="80" height="30" as="geometry" />
        </mxCell>
        <mxCell id="emLbw0oFXSXxzqp0pOtp-65" value="" style="endArrow=none;html=1;rounded=0;exitX=0;exitY=0.5;exitDx=0;exitDy=0;entryX=1;entryY=0.5;entryDx=0;entryDy=0;" edge="1" parent="1" source="emLbw0oFXSXxzqp0pOtp-61" target="emLbw0oFXSXxzqp0pOtp-63">
          <mxGeometry width="50" height="50" relative="1" as="geometry">
            <mxPoint x="-780" y="1027.25" as="sourcePoint" />
            <mxPoint x="-830" y="1062.25" as="targetPoint" />
          </mxGeometry>
        </mxCell>
        <mxCell id="emLbw0oFXSXxzqp0pOtp-66" value="" style="endArrow=none;html=1;rounded=0;exitX=0;exitY=0.75;exitDx=0;exitDy=0;entryX=1;entryY=0.5;entryDx=0;entryDy=0;" edge="1" parent="1" source="emLbw0oFXSXxzqp0pOtp-61" target="emLbw0oFXSXxzqp0pOtp-62">
          <mxGeometry width="50" height="50" relative="1" as="geometry">
            <mxPoint x="-775" y="1207.25" as="sourcePoint" />
            <mxPoint x="-830" y="1162.25" as="targetPoint" />
          </mxGeometry>
        </mxCell>
        <mxCell id="emLbw0oFXSXxzqp0pOtp-67" value="" style="endArrow=none;html=1;rounded=0;exitX=0;exitY=1;exitDx=0;exitDy=0;entryX=1;entryY=0;entryDx=0;entryDy=0;" edge="1" parent="1" source="emLbw0oFXSXxzqp0pOtp-61" target="emLbw0oFXSXxzqp0pOtp-64">
          <mxGeometry width="50" height="50" relative="1" as="geometry">
            <mxPoint x="-805" y="1207.25" as="sourcePoint" />
            <mxPoint x="-855" y="1397.25" as="targetPoint" />
          </mxGeometry>
        </mxCell>
        <mxCell id="emLbw0oFXSXxzqp0pOtp-68" value="# de tarjeta" style="ellipse;whiteSpace=wrap;html=1;" vertex="1" parent="1">
          <mxGeometry x="-735" y="1367.25" width="80" height="30" as="geometry" />
        </mxCell>
        <mxCell id="emLbw0oFXSXxzqp0pOtp-69" value="" style="endArrow=none;html=1;rounded=0;entryX=0.5;entryY=0;entryDx=0;entryDy=0;exitX=0.5;exitY=1;exitDx=0;exitDy=0;" edge="1" parent="1" source="emLbw0oFXSXxzqp0pOtp-61" target="emLbw0oFXSXxzqp0pOtp-68">
          <mxGeometry width="50" height="50" relative="1" as="geometry">
            <mxPoint x="-685" y="1237.25" as="sourcePoint" />
            <mxPoint x="-735" y="1167.25" as="targetPoint" />
          </mxGeometry>
        </mxCell>
        <mxCell id="emLbw0oFXSXxzqp0pOtp-70" value="Tipo" style="ellipse;whiteSpace=wrap;html=1;" vertex="1" parent="1">
          <mxGeometry x="-710" y="1317.25" width="80" height="30" as="geometry" />
        </mxCell>
        <mxCell id="emLbw0oFXSXxzqp0pOtp-71" value="" style="endArrow=none;html=1;rounded=0;entryX=0;entryY=0;entryDx=0;entryDy=0;exitX=0.75;exitY=1;exitDx=0;exitDy=0;" edge="1" parent="1" source="emLbw0oFXSXxzqp0pOtp-61" target="emLbw0oFXSXxzqp0pOtp-70">
          <mxGeometry width="50" height="50" relative="1" as="geometry">
            <mxPoint x="-760" y="1307.25" as="sourcePoint" />
            <mxPoint x="-787" y="1336.25" as="targetPoint" />
          </mxGeometry>
        </mxCell>
        <mxCell id="emLbw0oFXSXxzqp0pOtp-72" value="Fecha de expiración" style="ellipse;whiteSpace=wrap;html=1;dashed=1;" vertex="1" parent="1">
          <mxGeometry x="-802.5" y="1327.25" width="95" height="40" as="geometry" />
        </mxCell>
        <mxCell id="emLbw0oFXSXxzqp0pOtp-73" value="Fecha de trámite" style="ellipse;whiteSpace=wrap;html=1;" vertex="1" parent="1">
          <mxGeometry x="-872.5" y="1332.25" width="70" height="40" as="geometry" />
        </mxCell>
        <mxCell id="emLbw0oFXSXxzqp0pOtp-74" value="" style="endArrow=none;html=1;rounded=0;entryX=0.5;entryY=0;entryDx=0;entryDy=0;exitX=0.25;exitY=1;exitDx=0;exitDy=0;" edge="1" parent="1" source="emLbw0oFXSXxzqp0pOtp-61" target="emLbw0oFXSXxzqp0pOtp-73">
          <mxGeometry width="50" height="50" relative="1" as="geometry">
            <mxPoint x="-760" y="1307.25" as="sourcePoint" />
            <mxPoint x="-777" y="1376.25" as="targetPoint" />
          </mxGeometry>
        </mxCell>
        <mxCell id="emLbw0oFXSXxzqp0pOtp-75" value="" style="endArrow=none;html=1;rounded=0;entryX=0.421;entryY=-0.05;entryDx=0;entryDy=0;exitX=0.5;exitY=1;exitDx=0;exitDy=0;entryPerimeter=0;" edge="1" parent="1" source="emLbw0oFXSXxzqp0pOtp-61" target="emLbw0oFXSXxzqp0pOtp-72">
          <mxGeometry width="50" height="50" relative="1" as="geometry">
            <mxPoint x="-760" y="1307.25" as="sourcePoint" />
            <mxPoint x="-752" y="1342.25" as="targetPoint" />
          </mxGeometry>
        </mxCell>
        <mxCell id="emLbw0oFXSXxzqp0pOtp-76" style="edgeStyle=orthogonalEdgeStyle;rounded=0;orthogonalLoop=1;jettySize=auto;html=1;exitX=1;exitY=0.5;exitDx=0;exitDy=0;entryX=0;entryY=0.5;entryDx=0;entryDy=0;endArrow=none;endFill=1;startFill=0;" edge="1" parent="1" source="emLbw0oFXSXxzqp0pOtp-80" target="emLbw0oFXSXxzqp0pOtp-104">
          <mxGeometry relative="1" as="geometry" />
        </mxCell>
        <mxCell id="emLbw0oFXSXxzqp0pOtp-77" style="edgeStyle=orthogonalEdgeStyle;rounded=0;orthogonalLoop=1;jettySize=auto;html=1;exitX=1;exitY=0.5;exitDx=0;exitDy=0;entryX=0;entryY=0.5;entryDx=0;entryDy=0;" edge="1" parent="1" source="emLbw0oFXSXxzqp0pOtp-80" target="emLbw0oFXSXxzqp0pOtp-106">
          <mxGeometry relative="1" as="geometry" />
        </mxCell>
        <mxCell id="emLbw0oFXSXxzqp0pOtp-78" style="edgeStyle=orthogonalEdgeStyle;rounded=0;orthogonalLoop=1;jettySize=auto;html=1;exitX=0;exitY=0.5;exitDx=0;exitDy=0;entryX=1;entryY=0.5;entryDx=0;entryDy=0;endArrow=none;startFill=0;" edge="1" parent="1" source="emLbw0oFXSXxzqp0pOtp-80" target="emLbw0oFXSXxzqp0pOtp-147">
          <mxGeometry relative="1" as="geometry">
            <Array as="points">
              <mxPoint x="-300" y="891.25" />
              <mxPoint x="-300" y="916.25" />
            </Array>
          </mxGeometry>
        </mxCell>
        <mxCell id="emLbw0oFXSXxzqp0pOtp-79" style="edgeStyle=orthogonalEdgeStyle;rounded=0;orthogonalLoop=1;jettySize=auto;html=1;exitX=1;exitY=0.5;exitDx=0;exitDy=0;entryX=1;entryY=0.5;entryDx=0;entryDy=0;" edge="1" parent="1" source="emLbw0oFXSXxzqp0pOtp-80" target="emLbw0oFXSXxzqp0pOtp-152">
          <mxGeometry relative="1" as="geometry" />
        </mxCell>
        <mxCell id="emLbw0oFXSXxzqp0pOtp-80" value="&lt;b&gt;&lt;font style=&quot;font-size: 19px;&quot;&gt;Producto&lt;/font&gt;&lt;/b&gt;" style="rounded=0;whiteSpace=wrap;html=1;" vertex="1" parent="1">
          <mxGeometry x="-148.75" y="861.25" width="120" height="60" as="geometry" />
        </mxCell>
        <mxCell id="emLbw0oFXSXxzqp0pOtp-81" value="&lt;div&gt;&lt;u&gt;ID Producto&lt;/u&gt;&lt;/div&gt;" style="ellipse;whiteSpace=wrap;html=1;" vertex="1" parent="1">
          <mxGeometry x="-240" y="848.75" width="80" height="30" as="geometry" />
        </mxCell>
        <mxCell id="emLbw0oFXSXxzqp0pOtp-82" value="" style="endArrow=none;html=1;rounded=0;exitX=1;exitY=1;exitDx=0;exitDy=0;entryX=0;entryY=0.25;entryDx=0;entryDy=0;" edge="1" parent="1" source="emLbw0oFXSXxzqp0pOtp-81" target="emLbw0oFXSXxzqp0pOtp-80">
          <mxGeometry width="50" height="50" relative="1" as="geometry">
            <mxPoint x="-48.75" y="651.25" as="sourcePoint" />
            <mxPoint x="-98.75" y="686.25" as="targetPoint" />
          </mxGeometry>
        </mxCell>
        <mxCell id="emLbw0oFXSXxzqp0pOtp-83" style="edgeStyle=orthogonalEdgeStyle;rounded=0;orthogonalLoop=1;jettySize=auto;html=1;exitX=0;exitY=0.5;exitDx=0;exitDy=0;entryX=1;entryY=0.5;entryDx=0;entryDy=0;" edge="1" parent="1" source="emLbw0oFXSXxzqp0pOtp-80" target="emLbw0oFXSXxzqp0pOtp-172">
          <mxGeometry relative="1" as="geometry">
            <mxPoint x="-430" y="1281.25" as="targetPoint" />
            <Array as="points">
              <mxPoint x="-149" y="901.25" />
              <mxPoint x="-290" y="901.25" />
              <mxPoint x="-290" y="961.25" />
              <mxPoint x="-400" y="961.25" />
              <mxPoint x="-400" y="1211.25" />
              <mxPoint x="-342" y="1211.25" />
              <mxPoint x="-342" y="1316.25" />
            </Array>
          </mxGeometry>
        </mxCell>
        <mxCell id="emLbw0oFXSXxzqp0pOtp-84" value="Nombre del videojuego" style="ellipse;whiteSpace=wrap;html=1;" vertex="1" parent="1">
          <mxGeometry x="-351.25" y="981.25" width="92.5" height="40" as="geometry" />
        </mxCell>
        <mxCell id="emLbw0oFXSXxzqp0pOtp-85" value="" style="endArrow=none;html=1;rounded=0;entryX=1;entryY=1;entryDx=0;entryDy=0;exitX=0;exitY=0.25;exitDx=0;exitDy=0;" edge="1" parent="1" source="emLbw0oFXSXxzqp0pOtp-88" target="emLbw0oFXSXxzqp0pOtp-84">
          <mxGeometry width="50" height="50" relative="1" as="geometry">
            <mxPoint x="-206.25" y="1096.25" as="sourcePoint" />
            <mxPoint x="-111.25" y="1231.25" as="targetPoint" />
          </mxGeometry>
        </mxCell>
        <mxCell id="emLbw0oFXSXxzqp0pOtp-86" value="" style="endArrow=none;html=1;rounded=0;entryX=1;entryY=0.5;entryDx=0;entryDy=0;exitX=0;exitY=0.5;exitDx=0;exitDy=0;" edge="1" parent="1" source="emLbw0oFXSXxzqp0pOtp-88" target="emLbw0oFXSXxzqp0pOtp-126">
          <mxGeometry width="50" height="50" relative="1" as="geometry">
            <mxPoint x="-206.25" y="1111.25" as="sourcePoint" />
            <mxPoint x="-266.25" y="1196.25" as="targetPoint" />
          </mxGeometry>
        </mxCell>
        <mxCell id="emLbw0oFXSXxzqp0pOtp-87" value="" style="endArrow=none;html=1;rounded=0;entryX=0.5;entryY=0;entryDx=0;entryDy=0;exitX=0.5;exitY=0;exitDx=0;exitDy=0;" edge="1" parent="1" source="emLbw0oFXSXxzqp0pOtp-89" target="emLbw0oFXSXxzqp0pOtp-92">
          <mxGeometry width="50" height="50" relative="1" as="geometry">
            <mxPoint x="-96.25" y="1336.25" as="sourcePoint" />
            <mxPoint x="73.75" y="1041.25" as="targetPoint" />
          </mxGeometry>
        </mxCell>
        <mxCell id="emLbw0oFXSXxzqp0pOtp-88" value="&lt;p class=&quot;&quot; data-end=&quot;275&quot; data-start=&quot;236&quot;&gt;&lt;font style=&quot;font-size: 20px;&quot;&gt;&lt;strong data-end=&quot;244&quot; data-start=&quot;236&quot;&gt;Videojuego&lt;/strong&gt;&lt;/font&gt;&lt;/p&gt;" style="rounded=0;whiteSpace=wrap;html=1;" vertex="1" parent="1">
          <mxGeometry x="-258.75" y="1031.25" width="120" height="60" as="geometry" />
        </mxCell>
        <mxCell id="emLbw0oFXSXxzqp0pOtp-89" value="&lt;font style=&quot;font-size: 20px;&quot;&gt;&lt;strong data-end=&quot;244&quot; data-start=&quot;236&quot;&gt;Álbum&lt;/strong&gt;&lt;/font&gt;" style="rounded=0;whiteSpace=wrap;html=1;" vertex="1" parent="1">
          <mxGeometry x="-43.75" y="1031.25" width="120" height="60" as="geometry" />
        </mxCell>
        <mxCell id="emLbw0oFXSXxzqp0pOtp-90" value="Nombre de la película" style="ellipse;whiteSpace=wrap;html=1;" vertex="1" parent="1">
          <mxGeometry x="-218.75" y="1211.25" width="100" height="40" as="geometry" />
        </mxCell>
        <mxCell id="emLbw0oFXSXxzqp0pOtp-91" value="" style="edgeStyle=orthogonalEdgeStyle;rounded=0;orthogonalLoop=1;jettySize=auto;html=1;endArrow=none;startFill=0;" edge="1" parent="1" source="emLbw0oFXSXxzqp0pOtp-92" target="emLbw0oFXSXxzqp0pOtp-80">
          <mxGeometry relative="1" as="geometry" />
        </mxCell>
        <mxCell id="emLbw0oFXSXxzqp0pOtp-92" value="" style="triangle;whiteSpace=wrap;html=1;rotation=90;" vertex="1" parent="1">
          <mxGeometry x="-118.75" y="961.25" width="60" height="80" as="geometry" />
        </mxCell>
        <mxCell id="emLbw0oFXSXxzqp0pOtp-93" value="" style="endArrow=none;html=1;rounded=0;entryX=0.5;entryY=1;entryDx=0;entryDy=0;exitX=0.5;exitY=0;exitDx=0;exitDy=0;" edge="1" parent="1" source="emLbw0oFXSXxzqp0pOtp-88" target="emLbw0oFXSXxzqp0pOtp-92">
          <mxGeometry width="50" height="50" relative="1" as="geometry">
            <mxPoint x="-241.25" y="1021.25" as="sourcePoint" />
            <mxPoint x="-191.25" y="971.25" as="targetPoint" />
          </mxGeometry>
        </mxCell>
        <mxCell id="emLbw0oFXSXxzqp0pOtp-94" value="&lt;font style=&quot;font-size: 20px;&quot;&gt;&lt;strong data-end=&quot;244&quot; data-start=&quot;236&quot;&gt;Película&lt;/strong&gt;&lt;/font&gt;" style="rounded=0;whiteSpace=wrap;html=1;" vertex="1" parent="1">
          <mxGeometry x="-148.75" y="1101.25" width="120" height="60" as="geometry" />
        </mxCell>
        <mxCell id="emLbw0oFXSXxzqp0pOtp-95" value="Streaming" style="ellipse;whiteSpace=wrap;html=1;" vertex="1" parent="1">
          <mxGeometry x="-223.75" y="921.25" width="75" height="25" as="geometry" />
        </mxCell>
        <mxCell id="emLbw0oFXSXxzqp0pOtp-96" value="" style="endArrow=none;html=1;rounded=0;entryX=1;entryY=0.5;entryDx=0;entryDy=0;" edge="1" parent="1" target="emLbw0oFXSXxzqp0pOtp-95">
          <mxGeometry width="50" height="50" relative="1" as="geometry">
            <mxPoint x="-90" y="951.25" as="sourcePoint" />
            <mxPoint x="-240" y="921.25" as="targetPoint" />
          </mxGeometry>
        </mxCell>
        <mxCell id="emLbw0oFXSXxzqp0pOtp-97" value="Precio de venta" style="ellipse;whiteSpace=wrap;html=1;" vertex="1" parent="1">
          <mxGeometry x="-190" y="823.75" width="95" height="20" as="geometry" />
        </mxCell>
        <mxCell id="emLbw0oFXSXxzqp0pOtp-98" value="" style="endArrow=none;html=1;rounded=0;exitX=0.5;exitY=1;exitDx=0;exitDy=0;entryX=0.25;entryY=0;entryDx=0;entryDy=0;" edge="1" parent="1" source="emLbw0oFXSXxzqp0pOtp-97" target="emLbw0oFXSXxzqp0pOtp-80">
          <mxGeometry width="50" height="50" relative="1" as="geometry">
            <mxPoint x="-148.75" y="841.25" as="sourcePoint" />
            <mxPoint x="-108.75" y="871.25" as="targetPoint" />
          </mxGeometry>
        </mxCell>
        <mxCell id="emLbw0oFXSXxzqp0pOtp-99" value="" style="endArrow=none;html=1;rounded=0;entryX=1;entryY=0.5;entryDx=0;entryDy=0;exitX=0.5;exitY=0;exitDx=0;exitDy=0;" edge="1" parent="1" source="emLbw0oFXSXxzqp0pOtp-94" target="emLbw0oFXSXxzqp0pOtp-92">
          <mxGeometry width="50" height="50" relative="1" as="geometry">
            <mxPoint x="41.25" y="1041.25" as="sourcePoint" />
            <mxPoint x="-58.75" y="1011.25" as="targetPoint" />
          </mxGeometry>
        </mxCell>
        <mxCell id="emLbw0oFXSXxzqp0pOtp-100" value="Folio de control" style="ellipse;whiteSpace=wrap;html=1;" vertex="1" parent="1">
          <mxGeometry x="-80" y="823.75" width="87.5" height="25" as="geometry" />
        </mxCell>
        <mxCell id="emLbw0oFXSXxzqp0pOtp-101" value="" style="endArrow=none;html=1;rounded=0;exitX=0.5;exitY=1;exitDx=0;exitDy=0;entryX=0.5;entryY=0;entryDx=0;entryDy=0;" edge="1" parent="1" source="emLbw0oFXSXxzqp0pOtp-100" target="emLbw0oFXSXxzqp0pOtp-80">
          <mxGeometry width="50" height="50" relative="1" as="geometry">
            <mxPoint x="-115.75" y="801.25" as="sourcePoint" />
            <mxPoint x="-78.75" y="871.25" as="targetPoint" />
          </mxGeometry>
        </mxCell>
        <mxCell id="emLbw0oFXSXxzqp0pOtp-102" value="&lt;b&gt;&lt;font style=&quot;font-size: 20px;&quot;&gt;Venta&lt;/font&gt;&lt;/b&gt;" style="rounded=0;whiteSpace=wrap;html=1;" vertex="1" parent="1">
          <mxGeometry x="175" y="906.25" width="120" height="60" as="geometry" />
        </mxCell>
        <mxCell id="emLbw0oFXSXxzqp0pOtp-103" style="edgeStyle=orthogonalEdgeStyle;rounded=0;orthogonalLoop=1;jettySize=auto;html=1;exitX=1;exitY=0.5;exitDx=0;exitDy=0;endArrow=classic;startFill=0;endFill=1;" edge="1" parent="1" source="emLbw0oFXSXxzqp0pOtp-104" target="emLbw0oFXSXxzqp0pOtp-102">
          <mxGeometry relative="1" as="geometry" />
        </mxCell>
        <mxCell id="emLbw0oFXSXxzqp0pOtp-104" value="Hist" style="rhombus;whiteSpace=wrap;html=1;" vertex="1" parent="1">
          <mxGeometry x="85" y="821.25" width="90" height="50" as="geometry" />
        </mxCell>
        <mxCell id="emLbw0oFXSXxzqp0pOtp-105" style="edgeStyle=orthogonalEdgeStyle;rounded=0;orthogonalLoop=1;jettySize=auto;html=1;exitX=1;exitY=0.5;exitDx=0;exitDy=0;entryX=0;entryY=0.5;entryDx=0;entryDy=0;" edge="1" parent="1" source="emLbw0oFXSXxzqp0pOtp-106" target="emLbw0oFXSXxzqp0pOtp-102">
          <mxGeometry relative="1" as="geometry" />
        </mxCell>
        <mxCell id="emLbw0oFXSXxzqp0pOtp-106" value="realiza" style="rhombus;whiteSpace=wrap;html=1;" vertex="1" parent="1">
          <mxGeometry x="47.5" y="911.25" width="90" height="50" as="geometry" />
        </mxCell>
        <mxCell id="emLbw0oFXSXxzqp0pOtp-107" value="Género" style="ellipse;whiteSpace=wrap;html=1;" vertex="1" parent="1">
          <mxGeometry x="-208.75" y="1181.25" width="60" height="20" as="geometry" />
        </mxCell>
        <mxCell id="emLbw0oFXSXxzqp0pOtp-108" value="Duración en minutos" style="ellipse;whiteSpace=wrap;html=1;" vertex="1" parent="1">
          <mxGeometry x="-52.5" y="1171.25" width="90" height="40" as="geometry" />
        </mxCell>
        <mxCell id="emLbw0oFXSXxzqp0pOtp-109" value="Clasificación" style="ellipse;whiteSpace=wrap;html=1;" vertex="1" parent="1">
          <mxGeometry x="-58.75" y="1221.25" width="90" height="30" as="geometry" />
        </mxCell>
        <mxCell id="emLbw0oFXSXxzqp0pOtp-110" value="Formato de vídeo" style="ellipse;whiteSpace=wrap;html=1;" vertex="1" parent="1">
          <mxGeometry x="-130" y="1241.25" width="86.25" height="40" as="geometry" />
        </mxCell>
        <mxCell id="emLbw0oFXSXxzqp0pOtp-111" value="" style="endArrow=none;html=1;rounded=0;exitX=1;exitY=0;exitDx=0;exitDy=0;entryX=0.5;entryY=1;entryDx=0;entryDy=0;" edge="1" parent="1" source="emLbw0oFXSXxzqp0pOtp-107" target="emLbw0oFXSXxzqp0pOtp-94">
          <mxGeometry width="50" height="50" relative="1" as="geometry">
            <mxPoint x="87.5" y="1131.25" as="sourcePoint" />
            <mxPoint x="-92.5" y="1171.25" as="targetPoint" />
          </mxGeometry>
        </mxCell>
        <mxCell id="emLbw0oFXSXxzqp0pOtp-112" value="" style="endArrow=none;html=1;rounded=0;exitX=1;exitY=0;exitDx=0;exitDy=0;entryX=0.5;entryY=1;entryDx=0;entryDy=0;" edge="1" parent="1" source="emLbw0oFXSXxzqp0pOtp-90" target="emLbw0oFXSXxzqp0pOtp-94">
          <mxGeometry width="50" height="50" relative="1" as="geometry">
            <mxPoint x="-143.5" y="1201.25" as="sourcePoint" />
            <mxPoint x="-82.5" y="1181.25" as="targetPoint" />
          </mxGeometry>
        </mxCell>
        <mxCell id="emLbw0oFXSXxzqp0pOtp-113" value="" style="endArrow=none;html=1;rounded=0;exitX=0.5;exitY=0;exitDx=0;exitDy=0;entryX=0.5;entryY=1;entryDx=0;entryDy=0;" edge="1" parent="1" source="emLbw0oFXSXxzqp0pOtp-110" target="emLbw0oFXSXxzqp0pOtp-94">
          <mxGeometry width="50" height="50" relative="1" as="geometry">
            <mxPoint x="-143.5" y="1227.25" as="sourcePoint" />
            <mxPoint x="-78.5" y="1181.25" as="targetPoint" />
          </mxGeometry>
        </mxCell>
        <mxCell id="emLbw0oFXSXxzqp0pOtp-114" value="" style="endArrow=none;html=1;rounded=0;exitX=0;exitY=0;exitDx=0;exitDy=0;entryX=0.5;entryY=1;entryDx=0;entryDy=0;" edge="1" parent="1" source="emLbw0oFXSXxzqp0pOtp-108" target="emLbw0oFXSXxzqp0pOtp-94">
          <mxGeometry width="50" height="50" relative="1" as="geometry">
            <mxPoint x="-133.5" y="1237.25" as="sourcePoint" />
            <mxPoint x="-68.5" y="1191.25" as="targetPoint" />
          </mxGeometry>
        </mxCell>
        <mxCell id="emLbw0oFXSXxzqp0pOtp-115" value="" style="endArrow=none;html=1;rounded=0;exitX=0;exitY=0;exitDx=0;exitDy=0;entryX=0.5;entryY=1;entryDx=0;entryDy=0;" edge="1" parent="1" source="emLbw0oFXSXxzqp0pOtp-109" target="emLbw0oFXSXxzqp0pOtp-94">
          <mxGeometry width="50" height="50" relative="1" as="geometry">
            <mxPoint x="-115.5" y="1261.25" as="sourcePoint" />
            <mxPoint x="-78.5" y="1181.25" as="targetPoint" />
          </mxGeometry>
        </mxCell>
        <mxCell id="emLbw0oFXSXxzqp0pOtp-116" value="Año de creación" style="ellipse;whiteSpace=wrap;html=1;" vertex="1" parent="1">
          <mxGeometry x="97.5" y="1016.25" width="82.5" height="30" as="geometry" />
        </mxCell>
        <mxCell id="emLbw0oFXSXxzqp0pOtp-117" value="Nombre de la disquera" style="ellipse;whiteSpace=wrap;html=1;" vertex="1" parent="1">
          <mxGeometry x="107.5" y="1101.25" width="90" height="40" as="geometry" />
        </mxCell>
        <mxCell id="emLbw0oFXSXxzqp0pOtp-118" value="&lt;p class=&quot;&quot; data-end=&quot;1220&quot; data-start=&quot;1202&quot;&gt;Nombre del álbum&lt;/p&gt;" style="ellipse;whiteSpace=wrap;html=1;" vertex="1" parent="1">
          <mxGeometry x="62.5" y="1141.25" width="90" height="40" as="geometry" />
        </mxCell>
        <mxCell id="emLbw0oFXSXxzqp0pOtp-119" value="Nombre del artista o grupo" style="ellipse;whiteSpace=wrap;html=1;" vertex="1" parent="1">
          <mxGeometry x="92.5" y="1051.25" width="97.5" height="40" as="geometry" />
        </mxCell>
        <mxCell id="emLbw0oFXSXxzqp0pOtp-120" value="" style="endArrow=none;html=1;rounded=0;exitX=1;exitY=0.5;exitDx=0;exitDy=0;entryX=0;entryY=1;entryDx=0;entryDy=0;" edge="1" parent="1" source="emLbw0oFXSXxzqp0pOtp-89" target="emLbw0oFXSXxzqp0pOtp-116">
          <mxGeometry width="50" height="50" relative="1" as="geometry">
            <mxPoint x="67.5" y="1141.25" as="sourcePoint" />
            <mxPoint x="97.5" y="1051.25" as="targetPoint" />
          </mxGeometry>
        </mxCell>
        <mxCell id="emLbw0oFXSXxzqp0pOtp-121" value="" style="endArrow=none;html=1;rounded=0;entryX=1;entryY=0.5;entryDx=0;entryDy=0;exitX=0;exitY=0.5;exitDx=0;exitDy=0;" edge="1" parent="1" source="emLbw0oFXSXxzqp0pOtp-119" target="emLbw0oFXSXxzqp0pOtp-89">
          <mxGeometry width="50" height="50" relative="1" as="geometry">
            <mxPoint x="86.5" y="1071.25" as="sourcePoint" />
            <mxPoint x="107.5" y="1056.25" as="targetPoint" />
          </mxGeometry>
        </mxCell>
        <mxCell id="emLbw0oFXSXxzqp0pOtp-122" value="" style="endArrow=none;html=1;rounded=0;exitX=0.5;exitY=0;exitDx=0;exitDy=0;entryX=0.5;entryY=1;entryDx=0;entryDy=0;" edge="1" parent="1" source="emLbw0oFXSXxzqp0pOtp-123" target="emLbw0oFXSXxzqp0pOtp-89">
          <mxGeometry width="50" height="50" relative="1" as="geometry">
            <mxPoint x="86.5" y="1071.25" as="sourcePoint" />
            <mxPoint x="119.5" y="1052.25" as="targetPoint" />
          </mxGeometry>
        </mxCell>
        <mxCell id="emLbw0oFXSXxzqp0pOtp-123" value="&lt;p class=&quot;&quot; data-end=&quot;1162&quot; data-start=&quot;1144&quot;&gt;&lt;u&gt;ID Producto&lt;/u&gt;&lt;/p&gt;" style="ellipse;whiteSpace=wrap;html=1;" vertex="1" parent="1">
          <mxGeometry x="-12.5" y="1111.25" width="80" height="30" as="geometry" />
        </mxCell>
        <mxCell id="emLbw0oFXSXxzqp0pOtp-124" value="" style="endArrow=none;html=1;rounded=0;exitX=1;exitY=1;exitDx=0;exitDy=0;entryX=0;entryY=0;entryDx=0;entryDy=0;" edge="1" parent="1" source="emLbw0oFXSXxzqp0pOtp-89" target="emLbw0oFXSXxzqp0pOtp-117">
          <mxGeometry width="50" height="50" relative="1" as="geometry">
            <mxPoint x="26.5" y="1121.25" as="sourcePoint" />
            <mxPoint x="26.5" y="1101.25" as="targetPoint" />
          </mxGeometry>
        </mxCell>
        <mxCell id="emLbw0oFXSXxzqp0pOtp-125" value="" style="endArrow=none;html=1;rounded=0;exitX=0.5;exitY=0;exitDx=0;exitDy=0;entryX=0.75;entryY=1;entryDx=0;entryDy=0;" edge="1" parent="1" source="emLbw0oFXSXxzqp0pOtp-118" target="emLbw0oFXSXxzqp0pOtp-89">
          <mxGeometry width="50" height="50" relative="1" as="geometry">
            <mxPoint x="14.5" y="1135.25" as="sourcePoint" />
            <mxPoint x="26.5" y="1101.25" as="targetPoint" />
          </mxGeometry>
        </mxCell>
        <mxCell id="emLbw0oFXSXxzqp0pOtp-126" value="&lt;p class=&quot;&quot; data-end=&quot;1344&quot; data-start=&quot;1326&quot;&gt;ID Producto&lt;/p&gt;" style="ellipse;whiteSpace=wrap;html=1;" vertex="1" parent="1">
          <mxGeometry x="-390" y="1032.25" width="102.5" height="20" as="geometry" />
        </mxCell>
        <mxCell id="emLbw0oFXSXxzqp0pOtp-127" value="Tipo de consola" style="ellipse;whiteSpace=wrap;html=1;" vertex="1" parent="1">
          <mxGeometry x="-390" y="1072.25" width="102.5" height="20" as="geometry" />
        </mxCell>
        <mxCell id="emLbw0oFXSXxzqp0pOtp-128" value="&lt;p class=&quot;&quot; data-end=&quot;1440&quot; data-start=&quot;1402&quot;&gt;Descripción (instrucciones de juego)&lt;/p&gt;" style="ellipse;whiteSpace=wrap;html=1;" vertex="1" parent="1">
          <mxGeometry x="-362.5" y="1102.25" width="102" height="60" as="geometry" />
        </mxCell>
        <mxCell id="emLbw0oFXSXxzqp0pOtp-129" value="" style="endArrow=none;html=1;rounded=0;entryX=1;entryY=0.5;entryDx=0;entryDy=0;exitX=0;exitY=0.75;exitDx=0;exitDy=0;" edge="1" parent="1" source="emLbw0oFXSXxzqp0pOtp-88" target="emLbw0oFXSXxzqp0pOtp-127">
          <mxGeometry width="50" height="50" relative="1" as="geometry">
            <mxPoint x="-248.5" y="1071.25" as="sourcePoint" />
            <mxPoint x="-256.25" y="1206.25" as="targetPoint" />
          </mxGeometry>
        </mxCell>
        <mxCell id="emLbw0oFXSXxzqp0pOtp-130" value="" style="endArrow=none;html=1;rounded=0;entryX=1;entryY=0;entryDx=0;entryDy=0;exitX=0;exitY=1;exitDx=0;exitDy=0;" edge="1" parent="1" source="emLbw0oFXSXxzqp0pOtp-88" target="emLbw0oFXSXxzqp0pOtp-128">
          <mxGeometry width="50" height="50" relative="1" as="geometry">
            <mxPoint x="-262.5" y="1091.25" as="sourcePoint" />
            <mxPoint x="-309.5" y="1091.25" as="targetPoint" />
          </mxGeometry>
        </mxCell>
        <mxCell id="emLbw0oFXSXxzqp0pOtp-131" value="&lt;b&gt;&lt;font style=&quot;font-size: 17px;&quot;&gt;Disponibilidad&lt;/font&gt;&lt;/b&gt;" style="rounded=0;whiteSpace=wrap;html=1;" vertex="1" parent="1">
          <mxGeometry x="-620" y="922.25" width="120" height="60" as="geometry" />
        </mxCell>
        <mxCell id="emLbw0oFXSXxzqp0pOtp-132" value="Modalidad (Streaming / Disco)" style="ellipse;whiteSpace=wrap;html=1;" vertex="1" parent="1">
          <mxGeometry x="-620" y="802.25" width="100" height="50" as="geometry" />
        </mxCell>
        <mxCell id="emLbw0oFXSXxzqp0pOtp-133" value="" style="triangle;whiteSpace=wrap;html=1;rotation=90;" vertex="1" parent="1">
          <mxGeometry x="-590" y="1012.25" width="60" height="80" as="geometry" />
        </mxCell>
        <mxCell id="emLbw0oFXSXxzqp0pOtp-134" value="&lt;b&gt;&lt;font style=&quot;font-size: 18px;&quot;&gt;Streaming&lt;/font&gt;&lt;/b&gt;" style="rounded=0;whiteSpace=wrap;html=1;" vertex="1" parent="1">
          <mxGeometry x="-710" y="1122.25" width="120" height="60" as="geometry" />
        </mxCell>
        <mxCell id="emLbw0oFXSXxzqp0pOtp-135" value="" style="endArrow=none;html=1;rounded=0;entryX=0.5;entryY=1;entryDx=0;entryDy=0;exitX=0.5;exitY=0;exitDx=0;exitDy=0;" edge="1" parent="1" source="emLbw0oFXSXxzqp0pOtp-134" target="emLbw0oFXSXxzqp0pOtp-133">
          <mxGeometry width="50" height="50" relative="1" as="geometry">
            <mxPoint x="-189" y="1042.25" as="sourcePoint" />
            <mxPoint x="-99" y="1012.25" as="targetPoint" />
          </mxGeometry>
        </mxCell>
        <mxCell id="emLbw0oFXSXxzqp0pOtp-136" value="" style="endArrow=none;html=1;rounded=0;entryX=0.5;entryY=0;entryDx=0;entryDy=0;" edge="1" parent="1" target="emLbw0oFXSXxzqp0pOtp-133">
          <mxGeometry width="50" height="50" relative="1" as="geometry">
            <mxPoint x="-490" y="1142.25" as="sourcePoint" />
            <mxPoint x="-59" y="1012.25" as="targetPoint" />
          </mxGeometry>
        </mxCell>
        <mxCell id="emLbw0oFXSXxzqp0pOtp-137" value="&lt;b&gt;&lt;font style=&quot;font-size: 19px;&quot;&gt;Disco&lt;/font&gt;&lt;/b&gt;" style="rounded=0;whiteSpace=wrap;html=1;" vertex="1" parent="1">
          <mxGeometry x="-550" y="1122.25" width="120" height="60" as="geometry" />
        </mxCell>
        <mxCell id="emLbw0oFXSXxzqp0pOtp-138" value="Disco" style="ellipse;whiteSpace=wrap;html=1;" vertex="1" parent="1">
          <mxGeometry x="-218.75" y="951.25" width="75" height="25" as="geometry" />
        </mxCell>
        <mxCell id="emLbw0oFXSXxzqp0pOtp-139" value="" style="endArrow=none;html=1;rounded=0;entryX=1;entryY=0.5;entryDx=0;entryDy=0;" edge="1" parent="1" target="emLbw0oFXSXxzqp0pOtp-138">
          <mxGeometry width="50" height="50" relative="1" as="geometry">
            <mxPoint x="-90" y="951.25" as="sourcePoint" />
            <mxPoint x="-209" y="918.25" as="targetPoint" />
          </mxGeometry>
        </mxCell>
        <mxCell id="emLbw0oFXSXxzqp0pOtp-140" value="" style="endArrow=none;html=1;rounded=0;entryX=0.5;entryY=0;entryDx=0;entryDy=0;dashed=1;exitX=0.5;exitY=1;exitDx=0;exitDy=0;" edge="1" parent="1" source="emLbw0oFXSXxzqp0pOtp-132" target="emLbw0oFXSXxzqp0pOtp-131">
          <mxGeometry width="50" height="50" relative="1" as="geometry">
            <mxPoint x="-630" y="862.25" as="sourcePoint" />
            <mxPoint x="-570" y="1082.25" as="targetPoint" />
          </mxGeometry>
        </mxCell>
        <mxCell id="emLbw0oFXSXxzqp0pOtp-141" value="&lt;p data-start=&quot;1580&quot; data-end=&quot;1619&quot; class=&quot;&quot;&gt;Número de visualizaciones (si aplica)&lt;/p&gt;" style="ellipse;whiteSpace=wrap;html=1;" vertex="1" parent="1">
          <mxGeometry x="-540" y="842.25" width="110" height="60" as="geometry" />
        </mxCell>
        <mxCell id="emLbw0oFXSXxzqp0pOtp-142" value="" style="endArrow=none;html=1;rounded=0;entryX=0.75;entryY=0;entryDx=0;entryDy=0;exitX=0.5;exitY=1;exitDx=0;exitDy=0;dashed=1;" edge="1" parent="1" source="emLbw0oFXSXxzqp0pOtp-141" target="emLbw0oFXSXxzqp0pOtp-131">
          <mxGeometry width="50" height="50" relative="1" as="geometry">
            <mxPoint x="-620" y="872.25" as="sourcePoint" />
            <mxPoint x="-550" y="932.25" as="targetPoint" />
          </mxGeometry>
        </mxCell>
        <mxCell id="emLbw0oFXSXxzqp0pOtp-143" value="" style="endArrow=none;dashed=1;html=1;dashPattern=1 3;strokeWidth=2;rounded=0;exitX=0;exitY=0.5;exitDx=0;exitDy=0;entryX=0.5;entryY=1;entryDx=0;entryDy=0;" edge="1" parent="1" source="emLbw0oFXSXxzqp0pOtp-133" target="emLbw0oFXSXxzqp0pOtp-131">
          <mxGeometry width="50" height="50" relative="1" as="geometry">
            <mxPoint x="-440" y="932.25" as="sourcePoint" />
            <mxPoint x="-390" y="882.25" as="targetPoint" />
          </mxGeometry>
        </mxCell>
        <mxCell id="emLbw0oFXSXxzqp0pOtp-144" value="" style="curved=1;endArrow=none;html=1;rounded=0;startFill=0;" edge="1" parent="1">
          <mxGeometry width="50" height="50" relative="1" as="geometry">
            <mxPoint x="-470" y="1052.25" as="sourcePoint" />
            <mxPoint x="-630" y="1052.25" as="targetPoint" />
            <Array as="points">
              <mxPoint x="-550" y="1119.75" />
              <mxPoint x="-610" y="1074.75" />
            </Array>
          </mxGeometry>
        </mxCell>
        <mxCell id="emLbw0oFXSXxzqp0pOtp-145" value="URL de Streaming (si aplica)" style="ellipse;whiteSpace=wrap;html=1;" vertex="1" parent="1">
          <mxGeometry x="-690" y="852.25" width="100" height="50" as="geometry" />
        </mxCell>
        <mxCell id="emLbw0oFXSXxzqp0pOtp-146" value="" style="endArrow=none;html=1;rounded=0;entryX=0.25;entryY=0;entryDx=0;entryDy=0;dashed=1;exitX=1;exitY=1;exitDx=0;exitDy=0;" edge="1" parent="1" source="emLbw0oFXSXxzqp0pOtp-145" target="emLbw0oFXSXxzqp0pOtp-131">
          <mxGeometry width="50" height="50" relative="1" as="geometry">
            <mxPoint x="-550" y="847.25" as="sourcePoint" />
            <mxPoint x="-550" y="932.25" as="targetPoint" />
          </mxGeometry>
        </mxCell>
        <mxCell id="emLbw0oFXSXxzqp0pOtp-147" value="tiene" style="rhombus;whiteSpace=wrap;html=1;" vertex="1" parent="1">
          <mxGeometry x="-410" y="892.25" width="90" height="50" as="geometry" />
        </mxCell>
        <mxCell id="emLbw0oFXSXxzqp0pOtp-148" style="edgeStyle=orthogonalEdgeStyle;rounded=0;orthogonalLoop=1;jettySize=auto;html=1;exitX=0;exitY=0.5;exitDx=0;exitDy=0;entryX=1;entryY=0.5;entryDx=0;entryDy=0;" edge="1" parent="1" source="emLbw0oFXSXxzqp0pOtp-147" target="emLbw0oFXSXxzqp0pOtp-131">
          <mxGeometry relative="1" as="geometry">
            <Array as="points">
              <mxPoint x="-450" y="917.25" />
              <mxPoint x="-450" y="952.25" />
            </Array>
          </mxGeometry>
        </mxCell>
        <mxCell id="emLbw0oFXSXxzqp0pOtp-149" value="Opción 1" style="text;html=1;align=center;verticalAlign=middle;whiteSpace=wrap;rounded=0;" vertex="1" parent="1">
          <mxGeometry x="-710" y="1082.25" width="60" height="30" as="geometry" />
        </mxCell>
        <mxCell id="emLbw0oFXSXxzqp0pOtp-150" value="Opción 2" style="text;html=1;align=center;verticalAlign=middle;whiteSpace=wrap;rounded=0;" vertex="1" parent="1">
          <mxGeometry x="-278.75" y="931.25" width="60" height="30" as="geometry" />
        </mxCell>
        <mxCell id="emLbw0oFXSXxzqp0pOtp-151" style="edgeStyle=orthogonalEdgeStyle;rounded=0;orthogonalLoop=1;jettySize=auto;html=1;entryX=0.5;entryY=0;entryDx=0;entryDy=0;" edge="1" parent="1" source="emLbw0oFXSXxzqp0pOtp-152" target="emLbw0oFXSXxzqp0pOtp-80">
          <mxGeometry relative="1" as="geometry" />
        </mxCell>
        <mxCell id="emLbw0oFXSXxzqp0pOtp-152" value="promociona" style="rhombus;whiteSpace=wrap;html=1;" vertex="1" parent="1">
          <mxGeometry x="-133.75" y="761.25" width="90" height="50" as="geometry" />
        </mxCell>
        <mxCell id="emLbw0oFXSXxzqp0pOtp-153" value="&lt;u&gt;ID Producto Promoción&lt;/u&gt;" style="ellipse;whiteSpace=wrap;html=1;" vertex="1" parent="1">
          <mxGeometry x="-184.75" y="711.25" width="89.75" height="40" as="geometry" />
        </mxCell>
        <mxCell id="emLbw0oFXSXxzqp0pOtp-154" value="Precio especial" style="ellipse;whiteSpace=wrap;html=1;" vertex="1" parent="1">
          <mxGeometry x="-87.5" y="721.25" width="95" height="20" as="geometry" />
        </mxCell>
        <mxCell id="emLbw0oFXSXxzqp0pOtp-155" value="" style="endArrow=none;html=1;rounded=0;exitX=0.5;exitY=1;exitDx=0;exitDy=0;entryX=0;entryY=0;entryDx=0;entryDy=0;" edge="1" parent="1" source="emLbw0oFXSXxzqp0pOtp-153" target="emLbw0oFXSXxzqp0pOtp-152">
          <mxGeometry width="50" height="50" relative="1" as="geometry">
            <mxPoint x="-150" y="931.25" as="sourcePoint" />
            <mxPoint x="-100" y="881.25" as="targetPoint" />
          </mxGeometry>
        </mxCell>
        <mxCell id="emLbw0oFXSXxzqp0pOtp-156" value="" style="endArrow=none;html=1;rounded=0;entryX=0.5;entryY=1;entryDx=0;entryDy=0;exitX=1;exitY=0;exitDx=0;exitDy=0;" edge="1" parent="1" source="emLbw0oFXSXxzqp0pOtp-152" target="emLbw0oFXSXxzqp0pOtp-154">
          <mxGeometry width="50" height="50" relative="1" as="geometry">
            <mxPoint x="-150" y="931.25" as="sourcePoint" />
            <mxPoint x="-100" y="881.25" as="targetPoint" />
          </mxGeometry>
        </mxCell>
        <mxCell id="emLbw0oFXSXxzqp0pOtp-157" style="edgeStyle=orthogonalEdgeStyle;rounded=0;orthogonalLoop=1;jettySize=auto;html=1;startArrow=classic;startFill=1;endArrow=none;" edge="1" parent="1" source="emLbw0oFXSXxzqp0pOtp-158" target="emLbw0oFXSXxzqp0pOtp-261">
          <mxGeometry relative="1" as="geometry">
            <Array as="points">
              <mxPoint x="-670" y="1440" />
            </Array>
          </mxGeometry>
        </mxCell>
        <mxCell id="emLbw0oFXSXxzqp0pOtp-158" value="&lt;font style=&quot;font-size: 20px;&quot;&gt;&lt;strong data-end=&quot;244&quot; data-start=&quot;236&quot;&gt;Orden de Compra&lt;/strong&gt;&lt;/font&gt;" style="rounded=0;whiteSpace=wrap;html=1;" vertex="1" parent="1">
          <mxGeometry x="-559.69" y="1391.25" width="120" height="60" as="geometry" />
        </mxCell>
        <mxCell id="emLbw0oFXSXxzqp0pOtp-159" value="&lt;p data-start=&quot;1782&quot; data-end=&quot;1792&quot; class=&quot;&quot;&gt;ID Orden&lt;/p&gt;" style="ellipse;whiteSpace=wrap;html=1;" vertex="1" parent="1">
          <mxGeometry x="-457.5" y="1481.25" width="57.5" height="30" as="geometry" />
        </mxCell>
        <mxCell id="emLbw0oFXSXxzqp0pOtp-160" value="&lt;p data-start=&quot;1821&quot; data-end=&quot;1851&quot; class=&quot;&quot;&gt;Folio de compra (10 dígitos)&lt;/p&gt;" style="ellipse;whiteSpace=wrap;html=1;" vertex="1" parent="1">
          <mxGeometry x="-390" y="1481.25" width="100" height="50" as="geometry" />
        </mxCell>
        <mxCell id="emLbw0oFXSXxzqp0pOtp-161" value="&lt;p data-start=&quot;1857&quot; data-end=&quot;1901&quot; class=&quot;&quot;&gt;Modalidad (Streaming / Paquetería / Ambas)&lt;/p&gt;" style="ellipse;whiteSpace=wrap;html=1;" vertex="1" parent="1">
          <mxGeometry x="-410.0000000000001" y="1411.25" width="153.75" height="50" as="geometry" />
        </mxCell>
        <mxCell id="emLbw0oFXSXxzqp0pOtp-162" value="Estado de la orden" style="ellipse;whiteSpace=wrap;html=1;" vertex="1" parent="1">
          <mxGeometry x="-400" y="1367.25" width="88.38" height="40" as="geometry" />
        </mxCell>
        <mxCell id="emLbw0oFXSXxzqp0pOtp-163" value="&lt;font style=&quot;font-size: 16px;&quot;&gt;&lt;b&gt;AUTOR:&lt;/b&gt; ARELLANES CONDE ESTEBAN&lt;br&gt;&lt;/font&gt;&lt;div&gt;&lt;font style=&quot;font-size: 16px;&quot;&gt;&lt;b&gt;GPO:&lt;/b&gt; 01&lt;/font&gt;&lt;/div&gt;&lt;div&gt;&lt;font style=&quot;font-size: 16px;&quot;&gt;Diseño Relacional Chen&lt;/font&gt;&lt;/div&gt;" style="text;whiteSpace=wrap;html=1;" vertex="1" parent="1">
          <mxGeometry x="-1580" y="973.5" width="330" height="78.75" as="geometry" />
        </mxCell>
        <mxCell id="emLbw0oFXSXxzqp0pOtp-164" value="" style="endArrow=none;html=1;rounded=0;entryX=0;entryY=0;entryDx=0;entryDy=0;exitX=0.5;exitY=1;exitDx=0;exitDy=0;" edge="1" parent="1" source="emLbw0oFXSXxzqp0pOtp-158" target="emLbw0oFXSXxzqp0pOtp-159">
          <mxGeometry width="50" height="50" relative="1" as="geometry">
            <mxPoint x="-619.69" y="1161.25" as="sourcePoint" />
            <mxPoint x="-669.69" y="1071.25" as="targetPoint" />
          </mxGeometry>
        </mxCell>
        <mxCell id="emLbw0oFXSXxzqp0pOtp-165" value="" style="endArrow=none;html=1;rounded=0;entryX=0;entryY=0;entryDx=0;entryDy=0;exitX=0.75;exitY=1;exitDx=0;exitDy=0;" edge="1" parent="1" source="emLbw0oFXSXxzqp0pOtp-158" target="emLbw0oFXSXxzqp0pOtp-160">
          <mxGeometry width="50" height="50" relative="1" as="geometry">
            <mxPoint x="-549.69" y="1416.25" as="sourcePoint" />
            <mxPoint x="-600.69" y="1357.25" as="targetPoint" />
          </mxGeometry>
        </mxCell>
        <mxCell id="emLbw0oFXSXxzqp0pOtp-166" value="" style="endArrow=none;html=1;rounded=0;exitX=1;exitY=0.5;exitDx=0;exitDy=0;entryX=0;entryY=0.5;entryDx=0;entryDy=0;" edge="1" parent="1">
          <mxGeometry width="50" height="50" relative="1" as="geometry">
            <mxPoint x="-439.6900000000005" y="1422.25" as="sourcePoint" />
            <mxPoint x="-410" y="1437.25" as="targetPoint" />
          </mxGeometry>
        </mxCell>
        <mxCell id="emLbw0oFXSXxzqp0pOtp-167" value="" style="whiteSpace=wrap;html=1;aspect=fixed;" vertex="1" parent="1">
          <mxGeometry x="-549.69" y="1267.25" width="100" height="100" as="geometry" />
        </mxCell>
        <mxCell id="emLbw0oFXSXxzqp0pOtp-168" value="" style="endArrow=none;html=1;rounded=0;exitX=1;exitY=0.25;exitDx=0;exitDy=0;entryX=0;entryY=0.5;entryDx=0;entryDy=0;" edge="1" parent="1" target="emLbw0oFXSXxzqp0pOtp-162">
          <mxGeometry width="50" height="50" relative="1" as="geometry">
            <mxPoint x="-439.6900000000005" y="1407.25" as="sourcePoint" />
            <mxPoint x="-436.69000000000005" y="1375.25" as="targetPoint" />
          </mxGeometry>
        </mxCell>
        <mxCell id="emLbw0oFXSXxzqp0pOtp-169" style="edgeStyle=orthogonalEdgeStyle;rounded=0;orthogonalLoop=1;jettySize=auto;html=1;exitX=0.5;exitY=1;exitDx=0;exitDy=0;entryX=0.5;entryY=0;entryDx=0;entryDy=0;" edge="1" parent="1" source="emLbw0oFXSXxzqp0pOtp-170" target="emLbw0oFXSXxzqp0pOtp-176">
          <mxGeometry relative="1" as="geometry" />
        </mxCell>
        <mxCell id="emLbw0oFXSXxzqp0pOtp-170" value="&lt;font style=&quot;font-size: 20px;&quot;&gt;&lt;strong data-end=&quot;244&quot; data-start=&quot;236&quot;&gt;Detalle de Orden&lt;/strong&gt;&lt;/font&gt;" style="rounded=0;whiteSpace=wrap;html=1;" vertex="1" parent="1">
          <mxGeometry x="-890" y="1012.25" width="120" height="60" as="geometry" />
        </mxCell>
        <mxCell id="emLbw0oFXSXxzqp0pOtp-171" style="edgeStyle=orthogonalEdgeStyle;rounded=0;orthogonalLoop=1;jettySize=auto;html=1;" edge="1" parent="1" source="emLbw0oFXSXxzqp0pOtp-172">
          <mxGeometry relative="1" as="geometry">
            <mxPoint x="-499.6900000000005" y="1392.25" as="targetPoint" />
          </mxGeometry>
        </mxCell>
        <mxCell id="emLbw0oFXSXxzqp0pOtp-172" value="&lt;p data-start=&quot;2091&quot; data-end=&quot;2101&quot; class=&quot;&quot;&gt;Cantidad&lt;/p&gt;" style="rhombus;whiteSpace=wrap;html=1;" vertex="1" parent="1">
          <mxGeometry x="-549.69" y="1292.25" width="100" height="50" as="geometry" />
        </mxCell>
        <mxCell id="emLbw0oFXSXxzqp0pOtp-173" value="&lt;p data-start=&quot;2107&quot; data-end=&quot;2124&quot; class=&quot;&quot;&gt;Precio unitario&lt;/p&gt;" style="ellipse;whiteSpace=wrap;html=1;" vertex="1" parent="1">
          <mxGeometry x="-1010" y="997.25" width="95" height="20" as="geometry" />
        </mxCell>
        <mxCell id="emLbw0oFXSXxzqp0pOtp-174" value="" style="endArrow=none;html=1;rounded=0;exitX=1;exitY=1;exitDx=0;exitDy=0;entryX=0;entryY=0.25;entryDx=0;entryDy=0;" edge="1" parent="1" source="emLbw0oFXSXxzqp0pOtp-173" target="emLbw0oFXSXxzqp0pOtp-170">
          <mxGeometry width="50" height="50" relative="1" as="geometry">
            <mxPoint x="-690" y="1212.25" as="sourcePoint" />
            <mxPoint x="-880" y="1032.25" as="targetPoint" />
          </mxGeometry>
        </mxCell>
        <mxCell id="emLbw0oFXSXxzqp0pOtp-175" style="edgeStyle=orthogonalEdgeStyle;rounded=0;orthogonalLoop=1;jettySize=auto;html=1;exitX=0.5;exitY=1;exitDx=0;exitDy=0;" edge="1" parent="1" source="emLbw0oFXSXxzqp0pOtp-176" target="emLbw0oFXSXxzqp0pOtp-61">
          <mxGeometry relative="1" as="geometry" />
        </mxCell>
        <mxCell id="emLbw0oFXSXxzqp0pOtp-176" value="tiene" style="rhombus;whiteSpace=wrap;html=1;" vertex="1" parent="1">
          <mxGeometry x="-807.5" y="1162.25" width="75" height="40" as="geometry" />
        </mxCell>
        <mxCell id="emLbw0oFXSXxzqp0pOtp-177" style="edgeStyle=orthogonalEdgeStyle;rounded=0;orthogonalLoop=1;jettySize=auto;html=1;exitX=1;exitY=0.5;exitDx=0;exitDy=0;endArrow=classic;startFill=0;endFill=1;" edge="1" parent="1">
          <mxGeometry relative="1" as="geometry">
            <Array as="points">
              <mxPoint x="-680" y="1421" />
              <mxPoint x="-680" y="1421" />
            </Array>
            <mxPoint x="-1055" y="1421" as="sourcePoint" />
            <mxPoint x="-559.6900000000005" y="1421" as="targetPoint" />
          </mxGeometry>
        </mxCell>
        <mxCell id="emLbw0oFXSXxzqp0pOtp-178" value="Puede generar" style="rhombus;whiteSpace=wrap;html=1;" vertex="1" parent="1">
          <mxGeometry x="-1165" y="1390" width="110" height="60" as="geometry" />
        </mxCell>
        <mxCell id="emLbw0oFXSXxzqp0pOtp-179" value="&lt;strong data-start=&quot;2214&quot; data-end=&quot;2246&quot;&gt;&lt;font style=&quot;font-size: 16px;&quot;&gt;Estado de Orden&lt;/font&gt;&lt;/strong&gt;" style="rounded=0;whiteSpace=wrap;html=1;" vertex="1" parent="1">
          <mxGeometry x="-897.5" y="1531.25" width="120" height="60" as="geometry" />
        </mxCell>
        <mxCell id="emLbw0oFXSXxzqp0pOtp-180" value="&lt;p data-start=&quot;2254&quot; data-end=&quot;2268&quot; class=&quot;&quot;&gt;&lt;u&gt;ID Historial&lt;/u&gt;&lt;/p&gt;" style="ellipse;whiteSpace=wrap;html=1;" vertex="1" parent="1">
          <mxGeometry x="-882.5" y="1606.25" width="95" height="20" as="geometry" />
        </mxCell>
        <mxCell id="emLbw0oFXSXxzqp0pOtp-181" value="&lt;p data-start=&quot;2295&quot; data-end=&quot;2303&quot; class=&quot;&quot;&gt;Estado&lt;/p&gt;" style="ellipse;whiteSpace=wrap;html=1;" vertex="1" parent="1">
          <mxGeometry x="-802.5" y="1631.25" width="95" height="20" as="geometry" />
        </mxCell>
        <mxCell id="emLbw0oFXSXxzqp0pOtp-182" value="&lt;p class=&quot;&quot; data-end=&quot;2333&quot; data-start=&quot;2309&quot;&gt;Fecha de actualización&lt;/p&gt;" style="ellipse;whiteSpace=wrap;html=1;" vertex="1" parent="1">
          <mxGeometry x="-971.25" y="1631.25" width="150" height="25" as="geometry" />
        </mxCell>
        <mxCell id="emLbw0oFXSXxzqp0pOtp-183" style="edgeStyle=orthogonalEdgeStyle;rounded=0;orthogonalLoop=1;jettySize=auto;html=1;exitX=1;exitY=0.5;exitDx=0;exitDy=0;entryX=0;entryY=0.5;entryDx=0;entryDy=0;startArrow=classic;startFill=0;endArrow=none;" edge="1" parent="1" source="emLbw0oFXSXxzqp0pOtp-185" target="emLbw0oFXSXxzqp0pOtp-240">
          <mxGeometry relative="1" as="geometry" />
        </mxCell>
        <mxCell id="emLbw0oFXSXxzqp0pOtp-184" style="edgeStyle=orthogonalEdgeStyle;rounded=0;orthogonalLoop=1;jettySize=auto;html=1;exitX=1;exitY=0.5;exitDx=0;exitDy=0;entryX=0;entryY=0.5;entryDx=0;entryDy=0;" edge="1" parent="1" source="emLbw0oFXSXxzqp0pOtp-185" target="emLbw0oFXSXxzqp0pOtp-242">
          <mxGeometry relative="1" as="geometry" />
        </mxCell>
        <mxCell id="emLbw0oFXSXxzqp0pOtp-185" value="&lt;p data-start=&quot;2339&quot; data-end=&quot;2352&quot; class=&quot;&quot;&gt;&lt;font style=&quot;font-size: 20px;&quot;&gt;&lt;strong data-start=&quot;2339&quot; data-end=&quot;2350&quot;&gt;Factura&lt;/strong&gt;&lt;/font&gt;&lt;/p&gt;" style="rounded=0;whiteSpace=wrap;html=1;" vertex="1" parent="1">
          <mxGeometry x="-1401.25" y="1242.25" width="120" height="60" as="geometry" />
        </mxCell>
        <mxCell id="emLbw0oFXSXxzqp0pOtp-186" value="&lt;p data-start=&quot;2358&quot; data-end=&quot;2370&quot; class=&quot;&quot;&gt;&lt;u&gt;ID Factura&lt;/u&gt;&lt;/p&gt;" style="ellipse;whiteSpace=wrap;html=1;" vertex="1" parent="1">
          <mxGeometry x="-1412.5" y="1332.25" width="95" height="20" as="geometry" />
        </mxCell>
        <mxCell id="emLbw0oFXSXxzqp0pOtp-187" value="Fecha de generación" style="ellipse;whiteSpace=wrap;html=1;" vertex="1" parent="1">
          <mxGeometry x="-1560" y="1317.25" width="130" height="25" as="geometry" />
        </mxCell>
        <mxCell id="emLbw0oFXSXxzqp0pOtp-188" value="Monto total" style="ellipse;whiteSpace=wrap;html=1;" vertex="1" parent="1">
          <mxGeometry x="-1507.5" y="1252.25" width="95" height="20" as="geometry" />
        </mxCell>
        <mxCell id="emLbw0oFXSXxzqp0pOtp-189" value="&lt;p data-start=&quot;2443&quot; data-end=&quot;2461&quot; class=&quot;&quot;&gt;Folio de factura&lt;/p&gt;" style="ellipse;whiteSpace=wrap;html=1;" vertex="1" parent="1">
          <mxGeometry x="-1496.25" y="1352.25" width="95" height="20" as="geometry" />
        </mxCell>
        <mxCell id="emLbw0oFXSXxzqp0pOtp-190" value="IVA" style="ellipse;whiteSpace=wrap;html=1;" vertex="1" parent="1">
          <mxGeometry x="-1507.5" y="1282.25" width="95" height="20" as="geometry" />
        </mxCell>
        <mxCell id="emLbw0oFXSXxzqp0pOtp-191" style="edgeStyle=orthogonalEdgeStyle;rounded=0;orthogonalLoop=1;jettySize=auto;html=1;exitX=0;exitY=0.5;exitDx=0;exitDy=0;entryX=1;entryY=0.5;entryDx=0;entryDy=0;endArrow=none;startFill=0;" edge="1" parent="1" source="emLbw0oFXSXxzqp0pOtp-192" target="emLbw0oFXSXxzqp0pOtp-258">
          <mxGeometry relative="1" as="geometry" />
        </mxCell>
        <mxCell id="emLbw0oFXSXxzqp0pOtp-192" value="&lt;strong&gt;&lt;font style=&quot;font-size: 16px;&quot;&gt;Paquete (Envío de Orden&lt;/font&gt;)&lt;/strong&gt;" style="rounded=0;whiteSpace=wrap;html=1;" vertex="1" parent="1">
          <mxGeometry x="-340" y="1620" width="120" height="60" as="geometry" />
        </mxCell>
        <mxCell id="emLbw0oFXSXxzqp0pOtp-193" value="&lt;p class=&quot;&quot; data-end=&quot;2588&quot; data-start=&quot;2576&quot;&gt;&lt;u&gt;ID Paquete&lt;/u&gt;&lt;/p&gt;" style="ellipse;whiteSpace=wrap;html=1;" vertex="1" parent="1">
          <mxGeometry x="-198.75" y="1715" width="95" height="20" as="geometry" />
        </mxCell>
        <mxCell id="emLbw0oFXSXxzqp0pOtp-194" value="Nombre de la empresa de paquetería" style="ellipse;whiteSpace=wrap;html=1;" vertex="1" parent="1">
          <mxGeometry x="-210" y="1575" width="160" height="50" as="geometry" />
        </mxCell>
        <mxCell id="emLbw0oFXSXxzqp0pOtp-195" value="&lt;p data-start=&quot;2662&quot; data-end=&quot;2668&quot; class=&quot;&quot;&gt;Peso&lt;/p&gt;" style="ellipse;whiteSpace=wrap;html=1;" vertex="1" parent="1">
          <mxGeometry x="-200" y="1635" width="95" height="20" as="geometry" />
        </mxCell>
        <mxCell id="emLbw0oFXSXxzqp0pOtp-196" value="&lt;p data-start=&quot;2674&quot; data-end=&quot;2710&quot; class=&quot;&quot;&gt;Dimensiones (Ancho x Alto x Largo)&lt;/p&gt;" style="ellipse;whiteSpace=wrap;html=1;" vertex="1" parent="1">
          <mxGeometry x="-491.87" y="1586.25" width="140" height="40" as="geometry" />
        </mxCell>
        <mxCell id="emLbw0oFXSXxzqp0pOtp-197" value="&lt;p data-start=&quot;2716&quot; data-end=&quot;2732&quot; class=&quot;&quot;&gt;Fecha de envío&lt;/p&gt;" style="ellipse;whiteSpace=wrap;html=1;" vertex="1" parent="1">
          <mxGeometry x="-412.5" y="1690" width="95" height="20" as="geometry" />
        </mxCell>
        <mxCell id="emLbw0oFXSXxzqp0pOtp-198" value="Número de seguimiento (24 caracteres)" style="ellipse;whiteSpace=wrap;html=1;" vertex="1" parent="1">
          <mxGeometry x="-210" y="1670" width="177.5" height="40" as="geometry" />
        </mxCell>
        <mxCell id="emLbw0oFXSXxzqp0pOtp-199" value="" style="endArrow=none;html=1;rounded=0;entryX=0;entryY=0.5;entryDx=0;entryDy=0;exitX=1;exitY=0.5;exitDx=0;exitDy=0;" edge="1" parent="1" source="emLbw0oFXSXxzqp0pOtp-188" target="emLbw0oFXSXxzqp0pOtp-185">
          <mxGeometry width="50" height="50" relative="1" as="geometry">
            <mxPoint x="-1331.25" y="1402.25" as="sourcePoint" />
            <mxPoint x="-1281.25" y="1352.25" as="targetPoint" />
          </mxGeometry>
        </mxCell>
        <mxCell id="emLbw0oFXSXxzqp0pOtp-200" value="" style="endArrow=none;html=1;rounded=0;entryX=0.5;entryY=1;entryDx=0;entryDy=0;exitX=0.5;exitY=0;exitDx=0;exitDy=0;" edge="1" parent="1" source="emLbw0oFXSXxzqp0pOtp-186" target="emLbw0oFXSXxzqp0pOtp-185">
          <mxGeometry width="50" height="50" relative="1" as="geometry">
            <mxPoint x="-1430" y="1292.25" as="sourcePoint" />
            <mxPoint x="-1391" y="1282.25" as="targetPoint" />
          </mxGeometry>
        </mxCell>
        <mxCell id="emLbw0oFXSXxzqp0pOtp-201" value="" style="endArrow=none;html=1;rounded=0;entryX=0;entryY=0.75;entryDx=0;entryDy=0;exitX=1;exitY=0.5;exitDx=0;exitDy=0;" edge="1" parent="1" source="emLbw0oFXSXxzqp0pOtp-190" target="emLbw0oFXSXxzqp0pOtp-185">
          <mxGeometry width="50" height="50" relative="1" as="geometry">
            <mxPoint x="-1430" y="1292.25" as="sourcePoint" />
            <mxPoint x="-1391" y="1282.25" as="targetPoint" />
          </mxGeometry>
        </mxCell>
        <mxCell id="emLbw0oFXSXxzqp0pOtp-202" value="" style="endArrow=none;html=1;rounded=0;entryX=0;entryY=1;entryDx=0;entryDy=0;exitX=1;exitY=0;exitDx=0;exitDy=0;" edge="1" parent="1" source="emLbw0oFXSXxzqp0pOtp-187" target="emLbw0oFXSXxzqp0pOtp-185">
          <mxGeometry width="50" height="50" relative="1" as="geometry">
            <mxPoint x="-1402" y="1302.25" as="sourcePoint" />
            <mxPoint x="-1391" y="1297.25" as="targetPoint" />
          </mxGeometry>
        </mxCell>
        <mxCell id="emLbw0oFXSXxzqp0pOtp-203" value="" style="endArrow=none;html=1;rounded=0;entryX=0.25;entryY=1;entryDx=0;entryDy=0;exitX=0.5;exitY=0;exitDx=0;exitDy=0;" edge="1" parent="1" source="emLbw0oFXSXxzqp0pOtp-189" target="emLbw0oFXSXxzqp0pOtp-185">
          <mxGeometry width="50" height="50" relative="1" as="geometry">
            <mxPoint x="-1403" y="1331.25" as="sourcePoint" />
            <mxPoint x="-1391" y="1312.25" as="targetPoint" />
          </mxGeometry>
        </mxCell>
        <mxCell id="emLbw0oFXSXxzqp0pOtp-204" value="" style="endArrow=none;html=1;rounded=0;entryX=1;entryY=0.25;entryDx=0;entryDy=0;exitX=0;exitY=1;exitDx=0;exitDy=0;" edge="1" parent="1" source="emLbw0oFXSXxzqp0pOtp-194" target="emLbw0oFXSXxzqp0pOtp-192">
          <mxGeometry width="50" height="50" relative="1" as="geometry">
            <mxPoint x="-320" y="1880" as="sourcePoint" />
            <mxPoint x="-296" y="1850" as="targetPoint" />
          </mxGeometry>
        </mxCell>
        <mxCell id="emLbw0oFXSXxzqp0pOtp-205" value="" style="endArrow=none;html=1;rounded=0;entryX=1;entryY=0.75;entryDx=0;entryDy=0;exitX=0;exitY=0;exitDx=0;exitDy=0;" edge="1" parent="1" source="emLbw0oFXSXxzqp0pOtp-198" target="emLbw0oFXSXxzqp0pOtp-192">
          <mxGeometry width="50" height="50" relative="1" as="geometry">
            <mxPoint x="-129" y="1593" as="sourcePoint" />
            <mxPoint x="-210" y="1660" as="targetPoint" />
          </mxGeometry>
        </mxCell>
        <mxCell id="emLbw0oFXSXxzqp0pOtp-206" value="" style="endArrow=none;html=1;rounded=0;entryX=1;entryY=0.5;entryDx=0;entryDy=0;exitX=0;exitY=0.5;exitDx=0;exitDy=0;" edge="1" parent="1" source="emLbw0oFXSXxzqp0pOtp-195" target="emLbw0oFXSXxzqp0pOtp-192">
          <mxGeometry width="50" height="50" relative="1" as="geometry">
            <mxPoint x="-129" y="1593" as="sourcePoint" />
            <mxPoint x="-210" y="1660" as="targetPoint" />
          </mxGeometry>
        </mxCell>
        <mxCell id="emLbw0oFXSXxzqp0pOtp-207" value="" style="endArrow=none;html=1;rounded=0;entryX=0.75;entryY=1;entryDx=0;entryDy=0;exitX=0;exitY=0.5;exitDx=0;exitDy=0;" edge="1" parent="1" source="emLbw0oFXSXxzqp0pOtp-193" target="emLbw0oFXSXxzqp0pOtp-192">
          <mxGeometry width="50" height="50" relative="1" as="geometry">
            <mxPoint x="-256" y="1595" as="sourcePoint" />
            <mxPoint x="-270" y="1630" as="targetPoint" />
          </mxGeometry>
        </mxCell>
        <mxCell id="emLbw0oFXSXxzqp0pOtp-208" value="" style="endArrow=none;html=1;rounded=0;entryX=1;entryY=0.5;entryDx=0;entryDy=0;exitX=0;exitY=0.5;exitDx=0;exitDy=0;" edge="1" parent="1" source="emLbw0oFXSXxzqp0pOtp-192" target="emLbw0oFXSXxzqp0pOtp-196">
          <mxGeometry width="50" height="50" relative="1" as="geometry">
            <mxPoint x="-256" y="1595" as="sourcePoint" />
            <mxPoint x="-270" y="1630" as="targetPoint" />
          </mxGeometry>
        </mxCell>
        <mxCell id="emLbw0oFXSXxzqp0pOtp-209" value="" style="endArrow=none;html=1;rounded=0;exitX=0;exitY=0.75;exitDx=0;exitDy=0;entryX=0.5;entryY=0;entryDx=0;entryDy=0;" edge="1" parent="1" source="emLbw0oFXSXxzqp0pOtp-192" target="emLbw0oFXSXxzqp0pOtp-197">
          <mxGeometry width="50" height="50" relative="1" as="geometry">
            <mxPoint x="-330" y="1645" as="sourcePoint" />
            <mxPoint x="-350" y="1655" as="targetPoint" />
          </mxGeometry>
        </mxCell>
        <mxCell id="emLbw0oFXSXxzqp0pOtp-210" value="" style="endArrow=none;html=1;rounded=0;exitX=0.5;exitY=0;exitDx=0;exitDy=0;entryX=0.25;entryY=1;entryDx=0;entryDy=0;" edge="1" parent="1" source="emLbw0oFXSXxzqp0pOtp-182" target="emLbw0oFXSXxzqp0pOtp-179">
          <mxGeometry width="50" height="50" relative="1" as="geometry">
            <mxPoint x="-331.2499999999999" y="1866.25" as="sourcePoint" />
            <mxPoint x="-281.2499999999999" y="1816.25" as="targetPoint" />
          </mxGeometry>
        </mxCell>
        <mxCell id="emLbw0oFXSXxzqp0pOtp-211" value="" style="endArrow=none;html=1;rounded=0;exitX=0.5;exitY=0;exitDx=0;exitDy=0;entryX=0.5;entryY=1;entryDx=0;entryDy=0;" edge="1" parent="1" source="emLbw0oFXSXxzqp0pOtp-180" target="emLbw0oFXSXxzqp0pOtp-179">
          <mxGeometry width="50" height="50" relative="1" as="geometry">
            <mxPoint x="-873.25" y="1656.25" as="sourcePoint" />
            <mxPoint x="-811.25" y="1691.25" as="targetPoint" />
          </mxGeometry>
        </mxCell>
        <mxCell id="emLbw0oFXSXxzqp0pOtp-212" value="" style="endArrow=none;html=1;rounded=0;exitX=0.5;exitY=0;exitDx=0;exitDy=0;entryX=0.75;entryY=1;entryDx=0;entryDy=0;" edge="1" parent="1" source="emLbw0oFXSXxzqp0pOtp-181" target="emLbw0oFXSXxzqp0pOtp-179">
          <mxGeometry width="50" height="50" relative="1" as="geometry">
            <mxPoint x="-801.25" y="1646.25" as="sourcePoint" />
            <mxPoint x="-781.2499999999999" y="1676.25" as="targetPoint" />
          </mxGeometry>
        </mxCell>
        <mxCell id="emLbw0oFXSXxzqp0pOtp-213" style="edgeStyle=orthogonalEdgeStyle;rounded=0;orthogonalLoop=1;jettySize=auto;html=1;entryX=0.5;entryY=1;entryDx=0;entryDy=0;endArrow=none;endFill=1;startArrow=classic;startFill=0;" edge="1" parent="1" source="emLbw0oFXSXxzqp0pOtp-214" target="emLbw0oFXSXxzqp0pOtp-253">
          <mxGeometry relative="1" as="geometry" />
        </mxCell>
        <mxCell id="emLbw0oFXSXxzqp0pOtp-214" value="&lt;p class=&quot;&quot; data-end=&quot;2823&quot; data-start=&quot;2783&quot;&gt;&lt;strong data-end=&quot;2808&quot; data-start=&quot;2783&quot;&gt;&lt;font style=&quot;font-size: 18px;&quot;&gt;Empresa de Paquetería&lt;/font&gt;&lt;/strong&gt;&lt;/p&gt;" style="rounded=0;whiteSpace=wrap;html=1;" vertex="1" parent="1">
          <mxGeometry x="-340" y="1840" width="120" height="60" as="geometry" />
        </mxCell>
        <mxCell id="emLbw0oFXSXxzqp0pOtp-215" value="&lt;p class=&quot;&quot; data-end=&quot;2841&quot; data-start=&quot;2829&quot;&gt;&lt;u&gt;ID Empresa&lt;/u&gt;&lt;/p&gt;" style="ellipse;whiteSpace=wrap;html=1;" vertex="1" parent="1">
          <mxGeometry x="-472.5" y="1840" width="95" height="20" as="geometry" />
        </mxCell>
        <mxCell id="emLbw0oFXSXxzqp0pOtp-216" value="&lt;p class=&quot;&quot; data-end=&quot;2855&quot; data-start=&quot;2847&quot;&gt;Nombre Empresa&lt;/p&gt;" style="ellipse;whiteSpace=wrap;html=1;" vertex="1" parent="1">
          <mxGeometry x="-481.24999999999955" y="1867.5" width="118.75" height="20" as="geometry" />
        </mxCell>
        <mxCell id="emLbw0oFXSXxzqp0pOtp-217" value="&lt;p class=&quot;&quot; data-end=&quot;2868&quot; data-start=&quot;2861&quot;&gt;Clave&lt;/p&gt;" style="ellipse;whiteSpace=wrap;html=1;" vertex="1" parent="1">
          <mxGeometry x="-198.75" y="1825" width="118.75" height="20" as="geometry" />
        </mxCell>
        <mxCell id="emLbw0oFXSXxzqp0pOtp-218" value="Zona de cobertura (A, B, C)" style="ellipse;whiteSpace=wrap;html=1;" vertex="1" parent="1">
          <mxGeometry x="-190" y="1860" width="160" height="40" as="geometry" />
        </mxCell>
        <mxCell id="emLbw0oFXSXxzqp0pOtp-219" value="&lt;p data-start=&quot;2909&quot; data-end=&quot;2937&quot; class=&quot;&quot;&gt;&lt;strong data-start=&quot;2909&quot; data-end=&quot;2935&quot;&gt;&lt;font style=&quot;font-size: 17px;&quot;&gt;Seguimiento de Paquete&lt;/font&gt;&lt;/strong&gt;&lt;/p&gt;" style="rounded=0;whiteSpace=wrap;html=1;" vertex="1" parent="1">
          <mxGeometry x="-605.6200000000001" y="1765" width="120" height="60" as="geometry" />
        </mxCell>
        <mxCell id="emLbw0oFXSXxzqp0pOtp-220" value="&lt;p data-start=&quot;2943&quot; data-end=&quot;2959&quot; class=&quot;&quot;&gt;&lt;u&gt;ID Seguimiento&lt;/u&gt;&lt;/p&gt;" style="ellipse;whiteSpace=wrap;html=1;" vertex="1" parent="1">
          <mxGeometry x="-753.7500000000001" y="1742.5" width="109.99" height="34.38" as="geometry" />
        </mxCell>
        <mxCell id="emLbw0oFXSXxzqp0pOtp-221" value="&lt;p data-start=&quot;3026&quot; data-end=&quot;3033&quot; class=&quot;&quot;&gt;Lugar&lt;/p&gt;" style="ellipse;whiteSpace=wrap;html=1;" vertex="1" parent="1">
          <mxGeometry x="-578.1200000000001" y="1845" width="65" height="20" as="geometry" />
        </mxCell>
        <mxCell id="emLbw0oFXSXxzqp0pOtp-222" value="&lt;p data-start=&quot;2988&quot; data-end=&quot;3020&quot; class=&quot;&quot;&gt;Número de escala (Consecutivo)&lt;/p&gt;" style="ellipse;whiteSpace=wrap;html=1;" vertex="1" parent="1">
          <mxGeometry x="-788.12" y="1787.5" width="131.25" height="40" as="geometry" />
        </mxCell>
        <mxCell id="emLbw0oFXSXxzqp0pOtp-223" value="Fecha y hora de llegada" style="ellipse;whiteSpace=wrap;html=1;" vertex="1" parent="1">
          <mxGeometry x="-753.7500000000001" y="1837.5" width="160" height="40" as="geometry" />
        </mxCell>
        <mxCell id="emLbw0oFXSXxzqp0pOtp-224" value="" style="endArrow=none;html=1;rounded=0;entryX=0;entryY=0.25;entryDx=0;entryDy=0;exitX=1;exitY=0.5;exitDx=0;exitDy=0;" edge="1" parent="1" source="emLbw0oFXSXxzqp0pOtp-215" target="emLbw0oFXSXxzqp0pOtp-214">
          <mxGeometry width="50" height="50" relative="1" as="geometry">
            <mxPoint x="-415.25" y="1755" as="sourcePoint" />
            <mxPoint x="-337.25" y="1705" as="targetPoint" />
          </mxGeometry>
        </mxCell>
        <mxCell id="emLbw0oFXSXxzqp0pOtp-225" value="" style="endArrow=none;html=1;rounded=0;entryX=0;entryY=0.5;entryDx=0;entryDy=0;exitX=1;exitY=0.5;exitDx=0;exitDy=0;" edge="1" parent="1" source="emLbw0oFXSXxzqp0pOtp-216" target="emLbw0oFXSXxzqp0pOtp-214">
          <mxGeometry width="50" height="50" relative="1" as="geometry">
            <mxPoint x="-367.25" y="1860" as="sourcePoint" />
            <mxPoint x="-327.25" y="1875" as="targetPoint" />
          </mxGeometry>
        </mxCell>
        <mxCell id="emLbw0oFXSXxzqp0pOtp-226" value="" style="endArrow=none;html=1;rounded=0;entryX=1;entryY=0.25;entryDx=0;entryDy=0;exitX=0.5;exitY=1;exitDx=0;exitDy=0;" edge="1" parent="1" source="emLbw0oFXSXxzqp0pOtp-217" target="emLbw0oFXSXxzqp0pOtp-214">
          <mxGeometry width="50" height="50" relative="1" as="geometry">
            <mxPoint x="-367.25" y="1860" as="sourcePoint" />
            <mxPoint x="-327.25" y="1875" as="targetPoint" />
          </mxGeometry>
        </mxCell>
        <mxCell id="emLbw0oFXSXxzqp0pOtp-227" value="" style="endArrow=none;html=1;rounded=0;entryX=1;entryY=0.617;entryDx=0;entryDy=0;entryPerimeter=0;exitX=0;exitY=0.5;exitDx=0;exitDy=0;" edge="1" parent="1" source="emLbw0oFXSXxzqp0pOtp-218" target="emLbw0oFXSXxzqp0pOtp-214">
          <mxGeometry width="50" height="50" relative="1" as="geometry">
            <mxPoint x="-150" y="1930" as="sourcePoint" />
            <mxPoint x="-327.25" y="1905" as="targetPoint" />
          </mxGeometry>
        </mxCell>
        <mxCell id="emLbw0oFXSXxzqp0pOtp-228" value="" style="endArrow=none;html=1;rounded=0;entryX=0;entryY=0.25;entryDx=0;entryDy=0;exitX=1;exitY=0.5;exitDx=0;exitDy=0;" edge="1" parent="1" source="emLbw0oFXSXxzqp0pOtp-220" target="emLbw0oFXSXxzqp0pOtp-219">
          <mxGeometry width="50" height="50" relative="1" as="geometry">
            <mxPoint x="-709.3800000000001" y="1785" as="sourcePoint" />
            <mxPoint x="-664.3800000000001" y="1755" as="targetPoint" />
          </mxGeometry>
        </mxCell>
        <mxCell id="emLbw0oFXSXxzqp0pOtp-229" value="" style="endArrow=none;html=1;rounded=0;entryX=0;entryY=0.5;entryDx=0;entryDy=0;exitX=1;exitY=0.5;exitDx=0;exitDy=0;" edge="1" parent="1" source="emLbw0oFXSXxzqp0pOtp-222" target="emLbw0oFXSXxzqp0pOtp-219">
          <mxGeometry width="50" height="50" relative="1" as="geometry">
            <mxPoint x="-670.6300000000001" y="1772" as="sourcePoint" />
            <mxPoint x="-621.6300000000001" y="1800" as="targetPoint" />
          </mxGeometry>
        </mxCell>
        <mxCell id="emLbw0oFXSXxzqp0pOtp-230" value="" style="endArrow=none;html=1;rounded=0;exitX=0.5;exitY=0;exitDx=0;exitDy=0;entryX=0.5;entryY=1;entryDx=0;entryDy=0;" edge="1" parent="1" source="emLbw0oFXSXxzqp0pOtp-221" target="emLbw0oFXSXxzqp0pOtp-219">
          <mxGeometry width="50" height="50" relative="1" as="geometry">
            <mxPoint x="-683.6300000000001" y="1820" as="sourcePoint" />
            <mxPoint x="-600.6300000000001" y="1855" as="targetPoint" />
          </mxGeometry>
        </mxCell>
        <mxCell id="emLbw0oFXSXxzqp0pOtp-231" value="" style="endArrow=none;html=1;rounded=0;exitX=1;exitY=0;exitDx=0;exitDy=0;entryX=0;entryY=1;entryDx=0;entryDy=0;" edge="1" parent="1" source="emLbw0oFXSXxzqp0pOtp-223" target="emLbw0oFXSXxzqp0pOtp-219">
          <mxGeometry width="50" height="50" relative="1" as="geometry">
            <mxPoint x="-549.6300000000001" y="1890" as="sourcePoint" />
            <mxPoint x="-590.6300000000001" y="1865" as="targetPoint" />
          </mxGeometry>
        </mxCell>
        <mxCell id="emLbw0oFXSXxzqp0pOtp-232" style="edgeStyle=orthogonalEdgeStyle;rounded=0;orthogonalLoop=1;jettySize=auto;html=1;exitX=0.5;exitY=1;exitDx=0;exitDy=0;entryX=0.5;entryY=0;entryDx=0;entryDy=0;" edge="1" parent="1" source="emLbw0oFXSXxzqp0pOtp-233" target="emLbw0oFXSXxzqp0pOtp-61">
          <mxGeometry relative="1" as="geometry">
            <Array as="points">
              <mxPoint x="-1229" y="1221" />
              <mxPoint x="-770" y="1221" />
            </Array>
          </mxGeometry>
        </mxCell>
        <mxCell id="emLbw0oFXSXxzqp0pOtp-233" value="Puede tener" style="rhombus;whiteSpace=wrap;html=1;" vertex="1" parent="1">
          <mxGeometry x="-1280" y="1122.25" width="102.5" height="48.75" as="geometry" />
        </mxCell>
        <mxCell id="emLbw0oFXSXxzqp0pOtp-234" value="(1, *)" style="text;html=1;align=center;verticalAlign=middle;whiteSpace=wrap;rounded=0;" vertex="1" parent="1">
          <mxGeometry x="-1225" y="1181" width="60" height="30" as="geometry" />
        </mxCell>
        <mxCell id="emLbw0oFXSXxzqp0pOtp-235" value="(1, 1)" style="text;html=1;align=center;verticalAlign=middle;whiteSpace=wrap;rounded=0;" vertex="1" parent="1">
          <mxGeometry x="-1305" y="686" width="60" height="30" as="geometry" />
        </mxCell>
        <mxCell id="emLbw0oFXSXxzqp0pOtp-236" value="(1, *)" style="text;html=1;align=center;verticalAlign=middle;whiteSpace=wrap;rounded=0;" vertex="1" parent="1">
          <mxGeometry x="-1055" y="1382.25" width="60" height="30" as="geometry" />
        </mxCell>
        <mxCell id="emLbw0oFXSXxzqp0pOtp-237" value="(1, *)" style="text;html=1;align=center;verticalAlign=middle;whiteSpace=wrap;rounded=0;" vertex="1" parent="1">
          <mxGeometry x="-1237.5" y="1382.25" width="60" height="30" as="geometry" />
        </mxCell>
        <mxCell id="emLbw0oFXSXxzqp0pOtp-238" value="" style="swimlane;startSize=0;" vertex="1" parent="1">
          <mxGeometry x="-1160.63" y="1375.63" width="98.13" height="91.25" as="geometry" />
        </mxCell>
        <mxCell id="emLbw0oFXSXxzqp0pOtp-239" style="edgeStyle=orthogonalEdgeStyle;rounded=0;orthogonalLoop=1;jettySize=auto;html=1;endArrow=none;startFill=0;" edge="1" parent="1" source="emLbw0oFXSXxzqp0pOtp-240">
          <mxGeometry relative="1" as="geometry">
            <mxPoint x="-1111.5" y="1376.6300000000006" as="targetPoint" />
          </mxGeometry>
        </mxCell>
        <mxCell id="emLbw0oFXSXxzqp0pOtp-240" value="genera" style="rhombus;whiteSpace=wrap;html=1;" vertex="1" parent="1">
          <mxGeometry x="-1155.78" y="1297.25" width="88.43" height="48.75" as="geometry" />
        </mxCell>
        <mxCell id="emLbw0oFXSXxzqp0pOtp-241" style="edgeStyle=orthogonalEdgeStyle;rounded=0;orthogonalLoop=1;jettySize=auto;html=1;entryX=0;entryY=0.5;entryDx=0;entryDy=0;" edge="1" parent="1" source="emLbw0oFXSXxzqp0pOtp-242" target="emLbw0oFXSXxzqp0pOtp-61">
          <mxGeometry relative="1" as="geometry" />
        </mxCell>
        <mxCell id="emLbw0oFXSXxzqp0pOtp-242" value="se asocia a" style="rhombus;whiteSpace=wrap;html=1;" vertex="1" parent="1">
          <mxGeometry x="-1083.43" y="1247.88" width="88.43" height="48.75" as="geometry" />
        </mxCell>
        <mxCell id="emLbw0oFXSXxzqp0pOtp-243" value="(1, *)" style="text;html=1;align=center;verticalAlign=middle;whiteSpace=wrap;rounded=0;" vertex="1" parent="1">
          <mxGeometry x="-1105" y="1342.25" width="60" height="30" as="geometry" />
        </mxCell>
        <mxCell id="emLbw0oFXSXxzqp0pOtp-244" value="(1, 1)" style="text;html=1;align=center;verticalAlign=middle;whiteSpace=wrap;rounded=0;" vertex="1" parent="1">
          <mxGeometry x="-1215.78" y="1282.25" width="60" height="30" as="geometry" />
        </mxCell>
        <mxCell id="emLbw0oFXSXxzqp0pOtp-245" value="(1, *)" style="text;html=1;align=center;verticalAlign=middle;whiteSpace=wrap;rounded=0;" vertex="1" parent="1">
          <mxGeometry x="-1277.5" y="1237.25" width="60" height="30" as="geometry" />
        </mxCell>
        <mxCell id="emLbw0oFXSXxzqp0pOtp-246" value="(1, 1)" style="text;html=1;align=center;verticalAlign=middle;whiteSpace=wrap;rounded=0;" vertex="1" parent="1">
          <mxGeometry x="-997.5" y="1277.25" width="60" height="30" as="geometry" />
        </mxCell>
        <mxCell id="emLbw0oFXSXxzqp0pOtp-247" style="edgeStyle=orthogonalEdgeStyle;rounded=0;orthogonalLoop=1;jettySize=auto;html=1;entryX=0.5;entryY=1;entryDx=0;entryDy=0;endArrow=none;startFill=0;" edge="1" parent="1" source="emLbw0oFXSXxzqp0pOtp-249" target="emLbw0oFXSXxzqp0pOtp-158">
          <mxGeometry relative="1" as="geometry" />
        </mxCell>
        <mxCell id="emLbw0oFXSXxzqp0pOtp-248" style="edgeStyle=orthogonalEdgeStyle;rounded=0;orthogonalLoop=1;jettySize=auto;html=1;exitX=1;exitY=0.5;exitDx=0;exitDy=0;endArrow=classic;startFill=0;endFill=1;" edge="1" parent="1" source="emLbw0oFXSXxzqp0pOtp-249" target="emLbw0oFXSXxzqp0pOtp-192">
          <mxGeometry relative="1" as="geometry" />
        </mxCell>
        <mxCell id="emLbw0oFXSXxzqp0pOtp-249" value="puede requerir" style="rhombus;whiteSpace=wrap;html=1;" vertex="1" parent="1">
          <mxGeometry x="-554.69" y="1531.25" width="110" height="55" as="geometry" />
        </mxCell>
        <mxCell id="emLbw0oFXSXxzqp0pOtp-250" value="(1, 1)" style="text;html=1;align=center;verticalAlign=middle;whiteSpace=wrap;rounded=0;" vertex="1" parent="1">
          <mxGeometry x="-351.25" y="1569.38" width="60" height="30" as="geometry" />
        </mxCell>
        <mxCell id="emLbw0oFXSXxzqp0pOtp-251" value="(1, 1)" style="text;html=1;align=center;verticalAlign=middle;whiteSpace=wrap;rounded=0;" vertex="1" parent="1">
          <mxGeometry x="-565" y="1461.25" width="60" height="30" as="geometry" />
        </mxCell>
        <mxCell id="emLbw0oFXSXxzqp0pOtp-252" style="edgeStyle=orthogonalEdgeStyle;rounded=0;orthogonalLoop=1;jettySize=auto;html=1;entryX=0.5;entryY=1;entryDx=0;entryDy=0;endArrow=none;startFill=1;startArrow=classic;" edge="1" parent="1" source="emLbw0oFXSXxzqp0pOtp-253" target="emLbw0oFXSXxzqp0pOtp-192">
          <mxGeometry relative="1" as="geometry" />
        </mxCell>
        <mxCell id="emLbw0oFXSXxzqp0pOtp-253" value="es envíado" style="rhombus;whiteSpace=wrap;html=1;" vertex="1" parent="1">
          <mxGeometry x="-335.00000000000006" y="1740" width="110" height="55" as="geometry" />
        </mxCell>
        <mxCell id="emLbw0oFXSXxzqp0pOtp-254" value="(1, 1)" style="text;html=1;align=center;verticalAlign=middle;whiteSpace=wrap;rounded=0;" vertex="1" parent="1">
          <mxGeometry x="-290" y="1810" width="60" height="30" as="geometry" />
        </mxCell>
        <mxCell id="emLbw0oFXSXxzqp0pOtp-255" value="(1, 1)" style="text;html=1;align=center;verticalAlign=middle;whiteSpace=wrap;rounded=0;" vertex="1" parent="1">
          <mxGeometry x="-290" y="1695" width="60" height="30" as="geometry" />
        </mxCell>
        <mxCell id="emLbw0oFXSXxzqp0pOtp-256" value="(1, 1)" style="text;html=1;align=center;verticalAlign=middle;whiteSpace=wrap;rounded=0;" vertex="1" parent="1">
          <mxGeometry x="-485" y="1655" width="60" height="30" as="geometry" />
        </mxCell>
        <mxCell id="emLbw0oFXSXxzqp0pOtp-257" style="edgeStyle=orthogonalEdgeStyle;rounded=0;orthogonalLoop=1;jettySize=auto;html=1;exitX=0.5;exitY=1;exitDx=0;exitDy=0;entryX=0.5;entryY=0;entryDx=0;entryDy=0;" edge="1" parent="1" source="emLbw0oFXSXxzqp0pOtp-258" target="emLbw0oFXSXxzqp0pOtp-219">
          <mxGeometry relative="1" as="geometry" />
        </mxCell>
        <mxCell id="emLbw0oFXSXxzqp0pOtp-258" value="puede tener" style="rhombus;whiteSpace=wrap;html=1;" vertex="1" parent="1">
          <mxGeometry x="-599.37" y="1635" width="107.5" height="30" as="geometry" />
        </mxCell>
        <mxCell id="emLbw0oFXSXxzqp0pOtp-259" value="(1, *)" style="text;html=1;align=center;verticalAlign=middle;whiteSpace=wrap;rounded=0;" vertex="1" parent="1">
          <mxGeometry x="-605.62" y="1665" width="60" height="30" as="geometry" />
        </mxCell>
        <mxCell id="emLbw0oFXSXxzqp0pOtp-260" style="edgeStyle=orthogonalEdgeStyle;rounded=0;orthogonalLoop=1;jettySize=auto;html=1;entryX=1;entryY=0.5;entryDx=0;entryDy=0;exitX=0.5;exitY=1;exitDx=0;exitDy=0;startArrow=classic;startFill=1;endArrow=none;" edge="1" parent="1" source="emLbw0oFXSXxzqp0pOtp-261" target="emLbw0oFXSXxzqp0pOtp-179">
          <mxGeometry relative="1" as="geometry" />
        </mxCell>
        <mxCell id="emLbw0oFXSXxzqp0pOtp-261" value="hist" style="rhombus;whiteSpace=wrap;html=1;" vertex="1" parent="1">
          <mxGeometry x="-723.75" y="1501.25" width="107.5" height="30" as="geometry" />
        </mxCell>
        <mxCell id="emLbw0oFXSXxzqp0pOtp-262" value="(1, *)" style="text;html=1;align=center;verticalAlign=middle;whiteSpace=wrap;rounded=0;" vertex="1" parent="1">
          <mxGeometry x="-670" y="1440" width="60" height="30" as="geometry" />
        </mxCell>
        <mxCell id="emLbw0oFXSXxzqp0pOtp-263" value="(1, *)" style="text;html=1;align=center;verticalAlign=middle;whiteSpace=wrap;rounded=0;" vertex="1" parent="1">
          <mxGeometry x="-770" y="1530" width="60" height="30" as="geometry" />
        </mxCell>
        <mxCell id="emLbw0oFXSXxzqp0pOtp-264" style="edgeStyle=orthogonalEdgeStyle;rounded=0;orthogonalLoop=1;jettySize=auto;html=1;exitX=1;exitY=0.5;exitDx=0;exitDy=0;" edge="1" parent="1" source="emLbw0oFXSXxzqp0pOtp-265" target="emLbw0oFXSXxzqp0pOtp-23">
          <mxGeometry relative="1" as="geometry" />
        </mxCell>
        <mxCell id="emLbw0oFXSXxzqp0pOtp-265" value="&lt;b&gt;&lt;font style=&quot;font-size: 20px;&quot;&gt;INICIO&lt;/font&gt;&lt;/b&gt;" style="rounded=0;whiteSpace=wrap;html=1;" vertex="1" parent="1">
          <mxGeometry x="-1435" y="2190" width="120" height="60" as="geometry" />
        </mxCell>
        <mxCell id="emLbw0oFXSXxzqp0pOtp-266" style="edgeStyle=orthogonalEdgeStyle;rounded=0;orthogonalLoop=1;jettySize=auto;html=1;exitX=1;exitY=0.5;exitDx=0;exitDy=0;entryX=0;entryY=0.5;entryDx=0;entryDy=0;" edge="1" parent="1" source="emLbw0oFXSXxzqp0pOtp-267" target="emLbw0oFXSXxzqp0pOtp-273">
          <mxGeometry relative="1" as="geometry" />
        </mxCell>
        <mxCell id="emLbw0oFXSXxzqp0pOtp-267" value="&lt;b&gt;&lt;font style=&quot;font-size: 21px;&quot;&gt;PAGADA&lt;/font&gt;&lt;/b&gt;" style="rounded=0;whiteSpace=wrap;html=1;" vertex="1" parent="1">
          <mxGeometry x="-905" y="2190" width="120" height="60" as="geometry" />
        </mxCell>
        <mxCell id="emLbw0oFXSXxzqp0pOtp-268" style="edgeStyle=orthogonalEdgeStyle;rounded=0;orthogonalLoop=1;jettySize=auto;html=1;exitX=1;exitY=0.5;exitDx=0;exitDy=0;entryX=0;entryY=0.5;entryDx=0;entryDy=0;" edge="1" parent="1" source="emLbw0oFXSXxzqp0pOtp-269" target="emLbw0oFXSXxzqp0pOtp-275">
          <mxGeometry relative="1" as="geometry" />
        </mxCell>
        <mxCell id="emLbw0oFXSXxzqp0pOtp-269" value="&lt;b&gt;&lt;font style=&quot;font-size: 20px;&quot;&gt;EN ENVÍO&lt;/font&gt;&lt;/b&gt;" style="rounded=0;whiteSpace=wrap;html=1;" vertex="1" parent="1">
          <mxGeometry x="-565" y="2190" width="120" height="60" as="geometry" />
        </mxCell>
        <mxCell id="emLbw0oFXSXxzqp0pOtp-270" value="&lt;b&gt;&lt;font style=&quot;font-size: 18px;&quot;&gt;STREAMING&lt;/font&gt;&lt;/b&gt;" style="rounded=0;whiteSpace=wrap;html=1;" vertex="1" parent="1">
          <mxGeometry x="-730" y="2307.5" width="120" height="60" as="geometry" />
        </mxCell>
        <mxCell id="emLbw0oFXSXxzqp0pOtp-271" style="edgeStyle=orthogonalEdgeStyle;rounded=0;orthogonalLoop=1;jettySize=auto;html=1;exitX=1;exitY=0.5;exitDx=0;exitDy=0;entryX=0;entryY=0.5;entryDx=0;entryDy=0;" edge="1" parent="1" source="emLbw0oFXSXxzqp0pOtp-273" target="emLbw0oFXSXxzqp0pOtp-269">
          <mxGeometry relative="1" as="geometry" />
        </mxCell>
        <mxCell id="emLbw0oFXSXxzqp0pOtp-272" style="edgeStyle=orthogonalEdgeStyle;rounded=0;orthogonalLoop=1;jettySize=auto;html=1;exitX=0.5;exitY=1;exitDx=0;exitDy=0;" edge="1" parent="1" source="emLbw0oFXSXxzqp0pOtp-273" target="emLbw0oFXSXxzqp0pOtp-270">
          <mxGeometry relative="1" as="geometry" />
        </mxCell>
        <mxCell id="emLbw0oFXSXxzqp0pOtp-273" value="&lt;b&gt;&lt;font style=&quot;font-size: 16px;&quot;&gt;TIPO&lt;/font&gt;&lt;/b&gt;" style="rhombus;whiteSpace=wrap;html=1;" vertex="1" parent="1">
          <mxGeometry x="-735" y="2180" width="130" height="80" as="geometry" />
        </mxCell>
        <mxCell id="emLbw0oFXSXxzqp0pOtp-274" style="edgeStyle=orthogonalEdgeStyle;rounded=0;orthogonalLoop=1;jettySize=auto;html=1;exitX=1;exitY=0.5;exitDx=0;exitDy=0;entryX=0;entryY=0.5;entryDx=0;entryDy=0;" edge="1" parent="1" source="emLbw0oFXSXxzqp0pOtp-275" target="emLbw0oFXSXxzqp0pOtp-24">
          <mxGeometry relative="1" as="geometry" />
        </mxCell>
        <mxCell id="emLbw0oFXSXxzqp0pOtp-275" value="&lt;b&gt;&lt;font style=&quot;font-size: 18px;&quot;&gt;ENTREGADA&lt;/font&gt;&lt;/b&gt;" style="rounded=0;whiteSpace=wrap;html=1;" vertex="1" parent="1">
          <mxGeometry x="-390" y="2190" width="120" height="60" as="geometry" />
        </mxCell>
        <mxCell id="emLbw0oFXSXxzqp0pOtp-276" style="edgeStyle=orthogonalEdgeStyle;rounded=0;orthogonalLoop=1;jettySize=auto;html=1;exitX=0.5;exitY=1;exitDx=0;exitDy=0;entryX=0;entryY=0.5;entryDx=0;entryDy=0;" edge="1" parent="1" source="emLbw0oFXSXxzqp0pOtp-278" target="emLbw0oFXSXxzqp0pOtp-280">
          <mxGeometry relative="1" as="geometry">
            <mxPoint x="-1015" y="2315" as="targetPoint" />
          </mxGeometry>
        </mxCell>
        <mxCell id="emLbw0oFXSXxzqp0pOtp-277" style="edgeStyle=orthogonalEdgeStyle;rounded=0;orthogonalLoop=1;jettySize=auto;html=1;exitX=1;exitY=0.5;exitDx=0;exitDy=0;entryX=0;entryY=0.5;entryDx=0;entryDy=0;" edge="1" parent="1" source="emLbw0oFXSXxzqp0pOtp-278" target="emLbw0oFXSXxzqp0pOtp-267">
          <mxGeometry relative="1" as="geometry" />
        </mxCell>
        <mxCell id="emLbw0oFXSXxzqp0pOtp-278" value="&lt;b&gt;&lt;font style=&quot;font-size: 15px;&quot;&gt;ESTADO&lt;/font&gt;&lt;/b&gt;" style="rhombus;whiteSpace=wrap;html=1;" vertex="1" parent="1">
          <mxGeometry x="-1080" y="2180" width="130" height="80" as="geometry" />
        </mxCell>
        <mxCell id="emLbw0oFXSXxzqp0pOtp-279" style="edgeStyle=orthogonalEdgeStyle;rounded=0;orthogonalLoop=1;jettySize=auto;html=1;entryX=0.5;entryY=1;entryDx=0;entryDy=0;" edge="1" parent="1" source="emLbw0oFXSXxzqp0pOtp-280" target="emLbw0oFXSXxzqp0pOtp-265">
          <mxGeometry relative="1" as="geometry" />
        </mxCell>
        <mxCell id="emLbw0oFXSXxzqp0pOtp-280" value="&lt;font style=&quot;font-size: 16px;&quot;&gt;&lt;b&gt;CANCELADA/DEVUELTA&lt;/b&gt;&lt;/font&gt;" style="rounded=0;whiteSpace=wrap;html=1;direction=south;" vertex="1" parent="1">
          <mxGeometry x="-1080" y="2300" width="130" height="70" as="geometry" />
        </mxCell>
        <mxCell id="emLbw0oFXSXxzqp0pOtp-281" value="&lt;font style=&quot;font-size: 16px;&quot;&gt;&lt;b&gt;AUTOR:&lt;/b&gt; ARELLANES CONDE ESTEBAN&lt;br&gt;&lt;/font&gt;&lt;div&gt;&lt;font style=&quot;font-size: 16px;&quot;&gt;&lt;b&gt;GPO:&lt;/b&gt; 01&lt;/font&gt;&lt;/div&gt;&lt;div&gt;&lt;font style=&quot;font-size: 16px;&quot;&gt;Diseño y DIagrama de Estados&lt;/font&gt;&lt;/div&gt;" style="text;whiteSpace=wrap;html=1;" vertex="1" parent="1">
          <mxGeometry x="-1470" y="2050" width="330" height="78.75" as="geometry" />
        </mxCell>
      </root>
    </mxGraphModel>
  </diagram>
</mxfile>
